{
    "asset" : {
        "generator" : "Khronos glTF Blender I/O v1.5.17",
        "version" : "2.0"
    },
    "scene" : 0,
    "scenes" : [
        {
            "name" : "Scene",
            "nodes" : [
                0
            ]
        }
    ],
    "nodes" : [
        {
            "mesh" : 0,
            "name" : "Ak47",
            "rotation" : [
                0.7071068286895752,
                0,
                0,
                0.7071067094802856
            ],
            "scale" : [
                0.06568172574043274,
                0.10884512215852737,
                0.08607858419418335
            ]
        }
    ],
    "materials" : [
        {
            "doubleSided" : true,
            "name" : "05___Default",
            "pbrMetallicRoughness" : {
                "baseColorFactor" : [
                    0.800000011920929,
                    0.800000011920929,
                    0.800000011920929,
                    1
                ],
                "metallicFactor" : 0,
                "roughnessFactor" : 0.5
            }
        }
    ],
    "meshes" : [
        {
            "name" : "Ak47",
            "primitives" : [
                {
                    "attributes" : {
                        "POSITION" : 0,
                        "NORMAL" : 1,
                        "TEXCOORD_0" : 2
                    },
                    "indices" : 3,
                    "material" : 0
                }
            ]
        }
    ],
    "accessors" : [
        {
            "bufferView" : 0,
            "componentType" : 5126,
            "count" : 3683,
            "max" : [
                60.1786994934082,
                1.3162000179290771,
                20.943700790405273
            ],
            "min" : [
                -65.06340026855469,
                -6.432600021362305,
                -16.927799224853516
            ],
            "type" : "VEC3"
        },
        {
            "bufferView" : 1,
            "componentType" : 5126,
            "count" : 3683,
            "type" : "VEC3"
        },
        {
            "bufferView" : 2,
            "componentType" : 5126,
            "count" : 3683,
            "type" : "VEC2"
        },
        {
            "bufferView" : 3,
            "componentType" : 5123,
            "count" : 10089,
            "type" : "SCALAR"
        }
    ],
    "bufferViews" : [
        {
            "buffer" : 0,
            "byteLength" : 44196,
            "byteOffset" : 0
        },
        {
            "buffer" : 0,
            "byteLength" : 44196,
            "byteOffset" : 44196
        },
        {
            "buffer" : 0,
            "byteLength" : 29464,
            "byteOffset" : 88392
        },
        {
            "buffer" : 0,
            "byteLength" : 20178,
            "byteOffset" : 117856
        }
    ],
    "buffers" : [
        {
            "byteLength" : 138036,
            "uri" : "data:application/octet-stream;base64,"
        }
    ]
}
