{
    "asset" : {
        "generator" : "Khronos glTF Blender I/O v1.5.17",
        "version" : "2.0"
    },
    "scene" : 0,
    "scenes" : [
        {
            "name" : "Scene",
            "nodes" : [
                0
            ]
        }
    ],
    "nodes" : [
        {
            "mesh" : 0,
            "name" : "ataud",
            "rotation" : [
                0.7071068286895752,
                0,
                0,
                0.7071067094802856
            ]
        }
    ],
    "materials" : [
        {
            "doubleSided" : true,
            "name" : "FrontColor.002",
            "pbrMetallicRoughness" : {
                "metallicFactor" : 0
            }
        },
        {
            "doubleSided" : true,
            "name" : "Carpet_Loop_Pattern",
            "pbrMetallicRoughness" : {
                "baseColorTexture" : {
                    "index" : 0
                },
                "metallicFactor" : 0
            }
        },
        {
            "doubleSided" : true,
            "name" : "_Carpet_Loop_Pattern_1",
            "pbrMetallicRoughness" : {
                "baseColorTexture" : {
                    "index" : 1
                },
                "metallicFactor" : 0
            }
        },
        {
            "doubleSided" : true,
            "name" : "Color_G16",
            "pbrMetallicRoughness" : {
                "baseColorFactor" : [
                    0,
                    0.4000000059604645,
                    0,
                    1
                ],
                "metallicFactor" : 0
            }
        },
        {
            "doubleSided" : true,
            "name" : "_Wood_Cherry_Original_1",
            "pbrMetallicRoughness" : {
                "baseColorTexture" : {
                    "index" : 2
                },
                "metallicFactor" : 0
            }
        },
        {
            "doubleSided" : true,
            "name" : "Color_007",
            "pbrMetallicRoughness" : {
                "baseColorFactor" : [
                    0.22745099663734436,
                    0.22745099663734436,
                    0.22745099663734436,
                    1
                ],
                "metallicFactor" : 0
            }
        },
        {
            "doubleSided" : true,
            "name" : "Wood_Cherry_Original",
            "pbrMetallicRoughness" : {
                "baseColorTexture" : {
                    "index" : 3
                },
                "metallicFactor" : 0
            }
        },
        {
            "doubleSided" : true,
            "name" : "Translucent_Glass_Gray",
            "pbrMetallicRoughness" : {
                "baseColorFactor" : [
                    0.34902000427246094,
                    0.34902000427246094,
                    0.34902000427246094,
                    0.5
                ],
                "metallicFactor" : 0
            }
        }
    ],
    "meshes" : [
        {
            "name" : "ataud",
            "primitives" : [
                {
                    "attributes" : {
                        "POSITION" : 0,
                        "NORMAL" : 1,
                        "TEXCOORD_0" : 2
                    },
                    "indices" : 3,
                    "material" : 0
                },
                {
                    "attributes" : {
                        "POSITION" : 4,
                        "NORMAL" : 5,
                        "TEXCOORD_0" : 6
                    },
                    "indices" : 7,
                    "material" : 1
                },
                {
                    "attributes" : {
                        "POSITION" : 8,
                        "NORMAL" : 9,
                        "TEXCOORD_0" : 10
                    },
                    "indices" : 11,
                    "material" : 2
                },
                {
                    "attributes" : {
                        "POSITION" : 12,
                        "NORMAL" : 13,
                        "TEXCOORD_0" : 14
                    },
                    "indices" : 15,
                    "material" : 3
                },
                {
                    "attributes" : {
                        "POSITION" : 16,
                        "NORMAL" : 17,
                        "TEXCOORD_0" : 18
                    },
                    "indices" : 19,
                    "material" : 4
                },
                {
                    "attributes" : {
                        "POSITION" : 20,
                        "NORMAL" : 21,
                        "TEXCOORD_0" : 22
                    },
                    "indices" : 23,
                    "material" : 5
                },
                {
                    "attributes" : {
                        "POSITION" : 24,
                        "NORMAL" : 25,
                        "TEXCOORD_0" : 26
                    },
                    "indices" : 27,
                    "material" : 6
                },
                {
                    "attributes" : {
                        "POSITION" : 28,
                        "NORMAL" : 29,
                        "TEXCOORD_0" : 30
                    },
                    "indices" : 31,
                    "material" : 7
                }
            ]
        }
    ],
    "textures" : [
        {
            "sampler" : 0,
            "source" : 0
        },
        {
            "sampler" : 0,
            "source" : 1
        },
        {
            "sampler" : 0,
            "source" : 2
        },
        {
            "sampler" : 0,
            "source" : 3
        }
    ],
    "images" : [
        {
            "bufferView" : 8,
            "mimeType" : "image/jpeg",
            "name" : "Carpet_Loop_Pattern"
        },
        {
            "bufferView" : 13,
            "mimeType" : "image/jpeg",
            "name" : "_Carpet_Loop_Pattern_1"
        },
        {
            "bufferView" : 22,
            "mimeType" : "image/jpeg",
            "name" : "_Wood_Cherry_Original_1"
        },
        {
            "bufferView" : 31,
            "mimeType" : "image/jpeg",
            "name" : "Wood_Cherry_Original"
        }
    ],
    "accessors" : [
        {
            "bufferView" : 0,
            "componentType" : 5126,
            "count" : 882,
            "max" : [
                2.1600000858306885,
                -0.09000000357627869,
                0
            ],
            "min" : [
                0,
                -0.9599999785423279,
                -1.0199999809265137
            ],
            "type" : "VEC3"
        },
        {
            "bufferView" : 1,
            "componentType" : 5126,
            "count" : 882,
            "type" : "VEC3"
        },
        {
            "bufferView" : 2,
            "componentType" : 5126,
            "count" : 882,
            "type" : "VEC2"
        },
        {
            "bufferView" : 3,
            "componentType" : 5123,
            "count" : 1881,
            "type" : "SCALAR"
        },
        {
            "bufferView" : 4,
            "componentType" : 5126,
            "count" : 146,
            "max" : [
                2.09089994430542,
                -0.2291029989719391,
                -0.03999999910593033
            ],
            "min" : [
                0.06910260021686554,
                -0.8908969759941101,
                -0.09000000357627869
            ],
            "type" : "VEC3"
        },
        {
            "bufferView" : 5,
            "componentType" : 5126,
            "count" : 146,
            "type" : "VEC3"
        },
        {
            "bufferView" : 6,
            "componentType" : 5126,
            "count" : 146,
            "type" : "VEC2"
        },
        {
            "bufferView" : 7,
            "componentType" : 5123,
            "count" : 384,
            "type" : "SCALAR"
        },
        {
            "bufferView" : 9,
            "componentType" : 5126,
            "count" : 18,
            "max" : [
                2.050309896469116,
                -0.3572719991207123,
                -0.03999999910593033
            ],
            "min" : [
                1.85030996799469,
                -0.7571200132369995,
                -0.09000000357627869
            ],
            "type" : "VEC3"
        },
        {
            "bufferView" : 10,
            "componentType" : 5126,
            "count" : 18,
            "type" : "VEC3"
        },
        {
            "bufferView" : 11,
            "componentType" : 5126,
            "count" : 18,
            "type" : "VEC2"
        },
        {
            "bufferView" : 12,
            "componentType" : 5123,
            "count" : 42,
            "type" : "SCALAR"
        },
        {
            "bufferView" : 14,
            "componentType" : 5126,
            "count" : 4,
            "max" : [
                2.109999895095825,
                -0.20999999344348907,
                -0.3199999928474426
            ],
            "min" : [
                2.109999895095825,
                -0.9100000262260437,
                -1.0199999809265137
            ],
            "type" : "VEC3"
        },
        {
            "bufferView" : 15,
            "componentType" : 5126,
            "count" : 4,
            "type" : "VEC3"
        },
        {
            "bufferView" : 16,
            "componentType" : 5126,
            "count" : 4,
            "type" : "VEC2"
        },
        {
            "bufferView" : 17,
            "componentType" : 5123,
            "count" : 6,
            "type" : "SCALAR"
        },
        {
            "bufferView" : 18,
            "componentType" : 5126,
            "count" : 65,
            "max" : [
                2.0352399349212646,
                0,
                -0.3947559893131256
            ],
            "min" : [
                1.6467000246047974,
                -0.09000000357627869,
                -0.9452440142631531
            ],
            "type" : "VEC3"
        },
        {
            "bufferView" : 19,
            "componentType" : 5126,
            "count" : 65,
            "type" : "VEC3"
        },
        {
            "bufferView" : 20,
            "componentType" : 5126,
            "count" : 65,
            "type" : "VEC2"
        },
        {
            "bufferView" : 21,
            "componentType" : 5123,
            "count" : 141,
            "type" : "SCALAR"
        },
        {
            "bufferView" : 23,
            "componentType" : 5126,
            "count" : 6,
            "max" : [
                1.6467000246047974,
                -0.20999999344348907,
                -0.3199999928474426
            ],
            "min" : [
                1.6467000246047974,
                -0.9100000262260437,
                -0.33326399326324463
            ],
            "type" : "VEC3"
        },
        {
            "bufferView" : 24,
            "componentType" : 5126,
            "count" : 6,
            "type" : "VEC3"
        },
        {
            "bufferView" : 25,
            "componentType" : 5126,
            "count" : 6,
            "type" : "VEC2"
        },
        {
            "bufferView" : 26,
            "componentType" : 5123,
            "count" : 12,
            "type" : "SCALAR"
        },
        {
            "bufferView" : 27,
            "componentType" : 5126,
            "count" : 82,
            "max" : [
                1.6467000246047974,
                -0.22496800124645233,
                -0.33326399326324463
            ],
            "min" : [
                0.19670000672340393,
                -0.8950319886207581,
                -0.5400000214576721
            ],
            "type" : "VEC3"
        },
        {
            "bufferView" : 28,
            "componentType" : 5126,
            "count" : 82,
            "type" : "VEC3"
        },
        {
            "bufferView" : 29,
            "componentType" : 5126,
            "count" : 82,
            "type" : "VEC2"
        },
        {
            "bufferView" : 30,
            "componentType" : 5123,
            "count" : 156,
            "type" : "SCALAR"
        },
        {
            "bufferView" : 32,
            "componentType" : 5126,
            "count" : 4,
            "max" : [
                2.09089994430542,
                -0.2291029989719391,
                -0.3199999928474426
            ],
            "min" : [
                1.6467000246047974,
                -0.8908969759941101,
                -0.3199999928474426
            ],
            "type" : "VEC3"
        },
        {
            "bufferView" : 33,
            "componentType" : 5126,
            "count" : 4,
            "type" : "VEC3"
        },
        {
            "bufferView" : 34,
            "componentType" : 5126,
            "count" : 4,
            "type" : "VEC2"
        },
        {
            "bufferView" : 35,
            "componentType" : 5123,
            "count" : 6,
            "type" : "SCALAR"
        }
    ],
    "bufferViews" : [
        {
            "buffer" : 0,
            "byteLength" : 10584,
            "byteOffset" : 0
        },
        {
            "buffer" : 0,
            "byteLength" : 10584,
            "byteOffset" : 10584
        },
        {
            "buffer" : 0,
            "byteLength" : 7056,
            "byteOffset" : 21168
        },
        {
            "buffer" : 0,
            "byteLength" : 3762,
            "byteOffset" : 28224
        },
        {
            "buffer" : 0,
            "byteLength" : 1752,
            "byteOffset" : 31988
        },
        {
            "buffer" : 0,
            "byteLength" : 1752,
            "byteOffset" : 33740
        },
        {
            "buffer" : 0,
            "byteLength" : 1168,
            "byteOffset" : 35492
        },
        {
            "buffer" : 0,
            "byteLength" : 768,
            "byteOffset" : 36660
        },
        {
            "buffer" : 0,
            "byteLength" : 22923,
            "byteOffset" : 37428
        },
        {
            "buffer" : 0,
            "byteLength" : 216,
            "byteOffset" : 60352
        },
        {
            "buffer" : 0,
            "byteLength" : 216,
            "byteOffset" : 60568
        },
        {
            "buffer" : 0,
            "byteLength" : 144,
            "byteOffset" : 60784
        },
        {
            "buffer" : 0,
            "byteLength" : 84,
            "byteOffset" : 60928
        },
        {
            "buffer" : 0,
            "byteLength" : 21919,
            "byteOffset" : 61012
        },
        {
            "buffer" : 0,
            "byteLength" : 48,
            "byteOffset" : 82932
        },
        {
            "buffer" : 0,
            "byteLength" : 48,
            "byteOffset" : 82980
        },
        {
            "buffer" : 0,
            "byteLength" : 32,
            "byteOffset" : 83028
        },
        {
            "buffer" : 0,
            "byteLength" : 12,
            "byteOffset" : 83060
        },
        {
            "buffer" : 0,
            "byteLength" : 780,
            "byteOffset" : 83072
        },
        {
            "buffer" : 0,
            "byteLength" : 780,
            "byteOffset" : 83852
        },
        {
            "buffer" : 0,
            "byteLength" : 520,
            "byteOffset" : 84632
        },
        {
            "buffer" : 0,
            "byteLength" : 282,
            "byteOffset" : 85152
        },
        {
            "buffer" : 0,
            "byteLength" : 27956,
            "byteOffset" : 85436
        },
        {
            "buffer" : 0,
            "byteLength" : 72,
            "byteOffset" : 113392
        },
        {
            "buffer" : 0,
            "byteLength" : 72,
            "byteOffset" : 113464
        },
        {
            "buffer" : 0,
            "byteLength" : 48,
            "byteOffset" : 113536
        },
        {
            "buffer" : 0,
            "byteLength" : 24,
            "byteOffset" : 113584
        },
        {
            "buffer" : 0,
            "byteLength" : 984,
            "byteOffset" : 113608
        },
        {
            "buffer" : 0,
            "byteLength" : 984,
            "byteOffset" : 114592
        },
        {
            "buffer" : 0,
            "byteLength" : 656,
            "byteOffset" : 115576
        },
        {
            "buffer" : 0,
            "byteLength" : 312,
            "byteOffset" : 116232
        },
        {
            "buffer" : 0,
            "byteLength" : 27956,
            "byteOffset" : 116544
        },
        {
            "buffer" : 0,
            "byteLength" : 48,
            "byteOffset" : 144500
        },
        {
            "buffer" : 0,
            "byteLength" : 48,
            "byteOffset" : 144548
        },
        {
            "buffer" : 0,
            "byteLength" : 32,
            "byteOffset" : 144596
        },
        {
            "buffer" : 0,
            "byteLength" : 12,
            "byteOffset" : 144628
        }
    ],
    "samplers" : [
        {
            "magFilter" : 9729,
            "minFilter" : 9987
        }
    ],
    "buffers" : [
        {
            "byteLength" : 144640,
            "uri" : "data:application/octet-stream;base64,"
        }
    ]
}
