{
    "asset" : {
        "generator" : "Khronos glTF Blender I/O v1.5.17",
        "version" : "2.0"
    },
    "scene" : 0,
    "scenes" : [
        {
            "name" : "Scene",
            "nodes" : [
                0
            ]
        }
    ],
    "nodes" : [
        {
            "mesh" : 0,
            "name" : "uploads_files_229050_Outdoor+Bin",
            "rotation" : [
                0.7071068286895752,
                0,
                0,
                0.7071067094802856
            ],
            "scale" : [
                0.2959761917591095,
                0.26718100905418396,
                0.2750338912010193
            ]
        }
    ],
    "materials" : [
        {
            "doubleSided" : true,
            "name" : "blinn2SG",
            "pbrMetallicRoughness" : {
                "baseColorFactor" : [
                    0.800000011920929,
                    0.800000011920929,
                    0.800000011920929,
                    1
                ],
                "metallicFactor" : 0,
                "roughnessFactor" : 0.5
            }
        },
        {
            "doubleSided" : true,
            "name" : "lambert8SG",
            "pbrMetallicRoughness" : {
                "baseColorFactor" : [
                    0.800000011920929,
                    0.800000011920929,
                    0.800000011920929,
                    1
                ],
                "metallicFactor" : 0,
                "roughnessFactor" : 0.5
            }
        },
        {
            "doubleSided" : true,
            "name" : "mia_material_x3SG",
            "pbrMetallicRoughness" : {
                "baseColorFactor" : [
                    0.800000011920929,
                    0.800000011920929,
                    0.800000011920929,
                    1
                ],
                "metallicFactor" : 0,
                "roughnessFactor" : 0.5
            }
        },
        {
            "doubleSided" : true,
            "name" : "mia_material_x2SG",
            "pbrMetallicRoughness" : {
                "baseColorFactor" : [
                    0.800000011920929,
                    0.800000011920929,
                    0.800000011920929,
                    1
                ],
                "metallicFactor" : 0,
                "roughnessFactor" : 0.5
            }
        },
        {
            "doubleSided" : true,
            "name" : "mia_material_x1SG",
            "pbrMetallicRoughness" : {
                "baseColorFactor" : [
                    0.800000011920929,
                    0.800000011920929,
                    0.800000011920929,
                    1
                ],
                "metallicFactor" : 0,
                "roughnessFactor" : 0.5
            }
        }
    ],
    "meshes" : [
        {
            "name" : "uploads_files_229050_Outdoor+Bin",
            "primitives" : [
                {
                    "attributes" : {
                        "POSITION" : 0,
                        "NORMAL" : 1,
                        "TEXCOORD_0" : 2
                    },
                    "indices" : 3,
                    "material" : 0
                },
                {
                    "attributes" : {
                        "POSITION" : 4,
                        "NORMAL" : 5,
                        "TEXCOORD_0" : 6
                    },
                    "indices" : 7,
                    "material" : 1
                },
                {
                    "attributes" : {
                        "POSITION" : 8,
                        "NORMAL" : 9,
                        "TEXCOORD_0" : 10
                    },
                    "indices" : 11,
                    "material" : 2
                },
                {
                    "attributes" : {
                        "POSITION" : 12,
                        "NORMAL" : 13,
                        "TEXCOORD_0" : 14
                    },
                    "indices" : 15,
                    "material" : 3
                },
                {
                    "attributes" : {
                        "POSITION" : 16,
                        "NORMAL" : 17,
                        "TEXCOORD_0" : 18
                    },
                    "indices" : 19,
                    "material" : 4
                }
            ]
        }
    ],
    "accessors" : [
        {
            "bufferView" : 0,
            "componentType" : 5126,
            "count" : 5344,
            "max" : [
                138.71881103515625,
                216.37319946289062,
                0.37656500935554504
            ],
            "min" : [
                -274.05145263671875,
                -138.71884155273438,
                -371.1812438964844
            ],
            "type" : "VEC3"
        },
        {
            "bufferView" : 1,
            "componentType" : 5126,
            "count" : 5344,
            "type" : "VEC3"
        },
        {
            "bufferView" : 2,
            "componentType" : 5126,
            "count" : 5344,
            "type" : "VEC2"
        },
        {
            "bufferView" : 3,
            "componentType" : 5123,
            "count" : 30096,
            "type" : "SCALAR"
        },
        {
            "bufferView" : 4,
            "componentType" : 5126,
            "count" : 729,
            "max" : [
                129.58343505859375,
                129.88075256347656,
                -337.1719665527344
            ],
            "min" : [
                -130.54489135742188,
                -131.0957489013672,
                -388.2234191894531
            ],
            "type" : "VEC3"
        },
        {
            "bufferView" : 5,
            "componentType" : 5126,
            "count" : 729,
            "type" : "VEC3"
        },
        {
            "bufferView" : 6,
            "componentType" : 5126,
            "count" : 729,
            "type" : "VEC2"
        },
        {
            "bufferView" : 7,
            "componentType" : 5123,
            "count" : 4056,
            "type" : "SCALAR"
        },
        {
            "bufferView" : 8,
            "componentType" : 5126,
            "count" : 4107,
            "max" : [
                178.96746826171875,
                151.8632049560547,
                9.814180374145508
            ],
            "min" : [
                -68.02970123291016,
                -61.003562927246094,
                -399.95068359375
            ],
            "type" : "VEC3"
        },
        {
            "bufferView" : 9,
            "componentType" : 5126,
            "count" : 4107,
            "type" : "VEC3"
        },
        {
            "bufferView" : 10,
            "componentType" : 5126,
            "count" : 4107,
            "type" : "VEC2"
        },
        {
            "bufferView" : 11,
            "componentType" : 5123,
            "count" : 7584,
            "type" : "SCALAR"
        },
        {
            "bufferView" : 12,
            "componentType" : 5126,
            "count" : 2165,
            "max" : [
                102.84101867675781,
                240.48391723632812,
                18.384136199951172
            ],
            "min" : [
                -113.38487243652344,
                28.63629150390625,
                -384.2246398925781
            ],
            "type" : "VEC3"
        },
        {
            "bufferView" : 13,
            "componentType" : 5126,
            "count" : 2165,
            "type" : "VEC3"
        },
        {
            "bufferView" : 14,
            "componentType" : 5126,
            "count" : 2165,
            "type" : "VEC2"
        },
        {
            "bufferView" : 15,
            "componentType" : 5123,
            "count" : 3948,
            "type" : "SCALAR"
        },
        {
            "bufferView" : 16,
            "componentType" : 5126,
            "count" : 3237,
            "max" : [
                124.7569808959961,
                228.19442749023438,
                29.548160552978516
            ],
            "min" : [
                -69.90266418457031,
                -59.870330810546875,
                -403.2378845214844
            ],
            "type" : "VEC3"
        },
        {
            "bufferView" : 17,
            "componentType" : 5126,
            "count" : 3237,
            "type" : "VEC3"
        },
        {
            "bufferView" : 18,
            "componentType" : 5126,
            "count" : 3237,
            "type" : "VEC2"
        },
        {
            "bufferView" : 19,
            "componentType" : 5123,
            "count" : 5982,
            "type" : "SCALAR"
        }
    ],
    "bufferViews" : [
        {
            "buffer" : 0,
            "byteLength" : 64128,
            "byteOffset" : 0
        },
        {
            "buffer" : 0,
            "byteLength" : 64128,
            "byteOffset" : 64128
        },
        {
            "buffer" : 0,
            "byteLength" : 42752,
            "byteOffset" : 128256
        },
        {
            "buffer" : 0,
            "byteLength" : 60192,
            "byteOffset" : 171008
        },
        {
            "buffer" : 0,
            "byteLength" : 8748,
            "byteOffset" : 231200
        },
        {
            "buffer" : 0,
            "byteLength" : 8748,
            "byteOffset" : 239948
        },
        {
            "buffer" : 0,
            "byteLength" : 5832,
            "byteOffset" : 248696
        },
        {
            "buffer" : 0,
            "byteLength" : 8112,
            "byteOffset" : 254528
        },
        {
            "buffer" : 0,
            "byteLength" : 49284,
            "byteOffset" : 262640
        },
        {
            "buffer" : 0,
            "byteLength" : 49284,
            "byteOffset" : 311924
        },
        {
            "buffer" : 0,
            "byteLength" : 32856,
            "byteOffset" : 361208
        },
        {
            "buffer" : 0,
            "byteLength" : 15168,
            "byteOffset" : 394064
        },
        {
            "buffer" : 0,
            "byteLength" : 25980,
            "byteOffset" : 409232
        },
        {
            "buffer" : 0,
            "byteLength" : 25980,
            "byteOffset" : 435212
        },
        {
            "buffer" : 0,
            "byteLength" : 17320,
            "byteOffset" : 461192
        },
        {
            "buffer" : 0,
            "byteLength" : 7896,
            "byteOffset" : 478512
        },
        {
            "buffer" : 0,
            "byteLength" : 38844,
            "byteOffset" : 486408
        },
        {
            "buffer" : 0,
            "byteLength" : 38844,
            "byteOffset" : 525252
        },
        {
            "buffer" : 0,
            "byteLength" : 25896,
            "byteOffset" : 564096
        },
        {
            "buffer" : 0,
            "byteLength" : 11964,
            "byteOffset" : 589992
        }
    ],
    "buffers" : [
        {
            "byteLength" : 601956,
            "uri" : "data:application/octet-stream;base64,"
        }
    ]
}
