{
    "asset" : {
        "generator" : "Khronos glTF Blender I/O v1.5.17",
        "version" : "2.0"
    },
    "scene" : 0,
    "scenes" : [
        {
            "name" : "Scene",
            "nodes" : [
                0
            ]
        }
    ],
    "nodes" : [
        {
            "mesh" : 0,
            "name" : "boca.001",
            "rotation" : [
                0.7071068286895752,
                0,
                0,
                0.7071067094802856
            ]
        }
    ],
    "materials" : [
        {
            "doubleSided" : true,
            "name" : "Color_C05.001",
            "pbrMetallicRoughness" : {
                "baseColorFactor" : [
                    1,
                    0.8980389833450317,
                    0.800000011920929,
                    1
                ],
                "metallicFactor" : 0
            }
        },
        {
            "doubleSided" : true,
            "name" : "Color_A04.001",
            "pbrMetallicRoughness" : {
                "baseColorFactor" : [
                    1,
                    0.6000000238418579,
                    0.6000000238418579,
                    1
                ],
                "metallicFactor" : 0
            }
        }
    ],
    "meshes" : [
        {
            "name" : "boca.001",
            "primitives" : [
                {
                    "attributes" : {
                        "POSITION" : 0,
                        "NORMAL" : 1,
                        "TEXCOORD_0" : 2
                    },
                    "indices" : 3,
                    "material" : 0
                },
                {
                    "attributes" : {
                        "POSITION" : 4,
                        "NORMAL" : 5,
                        "TEXCOORD_0" : 6
                    },
                    "indices" : 7,
                    "material" : 1
                }
            ]
        }
    ],
    "accessors" : [
        {
            "bufferView" : 0,
            "componentType" : 5126,
            "count" : 10530,
            "max" : [
                22.883800506591797,
                0,
                -4.692800045013428
            ],
            "min" : [
                7.875380039215088,
                -13.18239974975586,
                -17.030799865722656
            ],
            "type" : "VEC3"
        },
        {
            "bufferView" : 1,
            "componentType" : 5126,
            "count" : 10530,
            "type" : "VEC3"
        },
        {
            "bufferView" : 2,
            "componentType" : 5126,
            "count" : 10530,
            "type" : "VEC2"
        },
        {
            "bufferView" : 3,
            "componentType" : 5123,
            "count" : 12228,
            "type" : "SCALAR"
        },
        {
            "bufferView" : 4,
            "componentType" : 5126,
            "count" : 6954,
            "max" : [
                23.076499938964844,
                -0.3292919993400574,
                0.40509501099586487
            ],
            "min" : [
                7.785669803619385,
                -19.97719955444336,
                -18.95680046081543
            ],
            "type" : "VEC3"
        },
        {
            "bufferView" : 5,
            "componentType" : 5126,
            "count" : 6954,
            "type" : "VEC3"
        },
        {
            "bufferView" : 6,
            "componentType" : 5126,
            "count" : 6954,
            "type" : "VEC2"
        },
        {
            "bufferView" : 7,
            "componentType" : 5123,
            "count" : 7602,
            "type" : "SCALAR"
        }
    ],
    "bufferViews" : [
        {
            "buffer" : 0,
            "byteLength" : 126360,
            "byteOffset" : 0
        },
        {
            "buffer" : 0,
            "byteLength" : 126360,
            "byteOffset" : 126360
        },
        {
            "buffer" : 0,
            "byteLength" : 84240,
            "byteOffset" : 252720
        },
        {
            "buffer" : 0,
            "byteLength" : 24456,
            "byteOffset" : 336960
        },
        {
            "buffer" : 0,
            "byteLength" : 83448,
            "byteOffset" : 361416
        },
        {
            "buffer" : 0,
            "byteLength" : 83448,
            "byteOffset" : 444864
        },
        {
            "buffer" : 0,
            "byteLength" : 55632,
            "byteOffset" : 528312
        },
        {
            "buffer" : 0,
            "byteLength" : 15204,
            "byteOffset" : 583944
        }
    ],
    "buffers" : [
        {
            "byteLength" : 599148,
            "uri" : "data:application/octet-stream;base64,"
        }
    ]
}
