{
    "asset" : {
        "generator" : "Khronos glTF Blender I/O v1.5.17",
        "version" : "2.0"
    },
    "scene" : 0,
    "scenes" : [
        {
            "name" : "Scene",
            "nodes" : [
                0
            ]
        }
    ],
    "nodes" : [
        {
            "mesh" : 0,
            "name" : "Arms",
            "rotation" : [
                0.7071068286895752,
                0,
                0,
                0.7071067094802856
            ]
        }
    ],
    "materials" : [
        {
            "doubleSided" : true,
            "name" : "Arms__Standard_",
            "pbrMetallicRoughness" : {
                "metallicFactor" : 0,
                "roughnessFactor" : 0.9458497762680054
            }
        }
    ],
    "meshes" : [
        {
            "name" : "Arms",
            "primitives" : [
                {
                    "attributes" : {
                        "POSITION" : 0,
                        "NORMAL" : 1,
                        "TEXCOORD_0" : 2
                    },
                    "indices" : 3,
                    "material" : 0
                }
            ]
        }
    ],
    "accessors" : [
        {
            "bufferView" : 0,
            "componentType" : 5126,
            "count" : 4366,
            "max" : [
                3.486599922180176,
                31.359399795532227,
                -34.45759963989258
            ],
            "min" : [
                -31.06439971923828,
                1.820099949836731,
                -60.996498107910156
            ],
            "type" : "VEC3"
        },
        {
            "bufferView" : 1,
            "componentType" : 5126,
            "count" : 4366,
            "type" : "VEC3"
        },
        {
            "bufferView" : 2,
            "componentType" : 5126,
            "count" : 4366,
            "type" : "VEC2"
        },
        {
            "bufferView" : 3,
            "componentType" : 5123,
            "count" : 22194,
            "type" : "SCALAR"
        }
    ],
    "bufferViews" : [
        {
            "buffer" : 0,
            "byteLength" : 52392,
            "byteOffset" : 0
        },
        {
            "buffer" : 0,
            "byteLength" : 52392,
            "byteOffset" : 52392
        },
        {
            "buffer" : 0,
            "byteLength" : 34928,
            "byteOffset" : 104784
        },
        {
            "buffer" : 0,
            "byteLength" : 44388,
            "byteOffset" : 139712
        }
    ],
    "buffers" : [
        {
            "byteLength" : 184100,
            "uri" : "data:application/octet-stream;base64,"
        }
    ]
}
