{
    "asset" : {
        "generator" : "Khronos glTF Blender I/O v1.5.17",
        "version" : "2.0"
    },
    "scene" : 0,
    "scenes" : [
        {
            "name" : "Scene",
            "nodes" : [
                0
            ]
        }
    ],
    "nodes" : [
        {
            "mesh" : 0,
            "name" : "Skull",
            "rotation" : [
                -0.29113733768463135,
                -0.5548977851867676,
                -0.6900954246520996,
                0.36207151412963867
            ],
            "scale" : [
                -0.04539932683110237,
                0.03424102067947388,
                0.03403743728995323
            ]
        }
    ],
    "materials" : [
        {
            "doubleSided" : true,
            "name" : "Skull",
            "pbrMetallicRoughness" : {
                "baseColorFactor" : [
                    0.800000011920929,
                    0.800000011920929,
                    0.800000011920929,
                    1
                ],
                "metallicFactor" : 0,
                "roughnessFactor" : 0.5
            }
        }
    ],
    "meshes" : [
        {
            "name" : "Skull",
            "primitives" : [
                {
                    "attributes" : {
                        "POSITION" : 0,
                        "NORMAL" : 1,
                        "TEXCOORD_0" : 2
                    },
                    "indices" : 3,
                    "material" : 0
                }
            ]
        }
    ],
    "accessors" : [
        {
            "bufferView" : 0,
            "componentType" : 5126,
            "count" : 64779,
            "max" : [
                232.16310119628906,
                304.93170166015625,
                63.91411590576172
            ],
            "min" : [
                -165.16287231445312,
                -225.04302978515625,
                -471.7335205078125
            ],
            "type" : "VEC3"
        },
        {
            "bufferView" : 1,
            "componentType" : 5126,
            "count" : 64779,
            "type" : "VEC3"
        },
        {
            "bufferView" : 2,
            "componentType" : 5126,
            "count" : 64779,
            "type" : "VEC2"
        },
        {
            "bufferView" : 3,
            "componentType" : 5123,
            "count" : 66954,
            "type" : "SCALAR"
        }
    ],
    "bufferViews" : [
        {
            "buffer" : 0,
            "byteLength" : 777348,
            "byteOffset" : 0
        },
        {
            "buffer" : 0,
            "byteLength" : 777348,
            "byteOffset" : 777348
        },
        {
            "buffer" : 0,
            "byteLength" : 518232,
            "byteOffset" : 1554696
        },
        {
            "buffer" : 0,
            "byteLength" : 133908,
            "byteOffset" : 2072928
        }
    ],
    "buffers" : [
        {
            "byteLength" : 2206836,
            "uri" : "data:application/octet-stream;base64,"
        }
    ]
}
