{
    "asset" : {
        "generator" : "Khronos glTF Blender I/O v1.5.17",
        "version" : "2.0"
    },
    "scene" : 0,
    "scenes" : [
        {
            "name" : "Scene",
            "nodes" : [
                0
            ]
        }
    ],
    "nodes" : [
        {
            "mesh" : 0,
            "name" : "cuadro",
            "rotation" : [
                0.7071068286895752,
                0,
                0,
                0.7071067094802856
            ],
            "scale" : [
                1,
                2.7385735511779785,
                1
            ]
        }
    ],
    "materials" : [
        {
            "doubleSided" : true,
            "name" : "_16",
            "pbrMetallicRoughness" : {
                "baseColorTexture" : {
                    "index" : 0
                },
                "metallicFactor" : 0
            }
        },
        {
            "doubleSided" : true,
            "name" : "Tile_Travertine_2inch",
            "pbrMetallicRoughness" : {
                "baseColorTexture" : {
                    "index" : 1
                },
                "metallicFactor" : 0
            }
        },
        {
            "doubleSided" : true,
            "name" : "_Logs_",
            "pbrMetallicRoughness" : {
                "baseColorTexture" : {
                    "index" : 2
                },
                "metallicFactor" : 0
            }
        },
        {
            "doubleSided" : true,
            "name" : "_Logs_1",
            "pbrMetallicRoughness" : {
                "baseColorTexture" : {
                    "index" : 3
                },
                "metallicFactor" : 0
            }
        },
        {
            "doubleSided" : true,
            "name" : "_LightGray_1",
            "pbrMetallicRoughness" : {
                "baseColorFactor" : [
                    0.6627449989318848,
                    0.6627449989318848,
                    0.6627449989318848,
                    1
                ],
                "metallicFactor" : 0
            }
        },
        {
            "doubleSided" : true,
            "name" : "FrontColor.001",
            "pbrMetallicRoughness" : {
                "metallicFactor" : 0
            }
        }
    ],
    "meshes" : [
        {
            "name" : "cuadro",
            "primitives" : [
                {
                    "attributes" : {
                        "POSITION" : 0,
                        "NORMAL" : 1,
                        "TEXCOORD_0" : 2
                    },
                    "indices" : 3,
                    "material" : 0
                },
                {
                    "attributes" : {
                        "POSITION" : 4,
                        "NORMAL" : 5,
                        "TEXCOORD_0" : 6
                    },
                    "indices" : 7,
                    "material" : 1
                },
                {
                    "attributes" : {
                        "POSITION" : 8,
                        "NORMAL" : 9,
                        "TEXCOORD_0" : 10
                    },
                    "indices" : 11,
                    "material" : 2
                },
                {
                    "attributes" : {
                        "POSITION" : 12,
                        "NORMAL" : 13,
                        "TEXCOORD_0" : 14
                    },
                    "indices" : 15,
                    "material" : 3
                },
                {
                    "attributes" : {
                        "POSITION" : 16,
                        "NORMAL" : 17,
                        "TEXCOORD_0" : 18
                    },
                    "indices" : 19,
                    "material" : 4
                },
                {
                    "attributes" : {
                        "POSITION" : 20,
                        "NORMAL" : 21,
                        "TEXCOORD_0" : 22
                    },
                    "indices" : 23,
                    "material" : 5
                }
            ]
        }
    ],
    "textures" : [
        {
            "sampler" : 0,
            "source" : 0
        },
        {
            "sampler" : 0,
            "source" : 1
        },
        {
            "sampler" : 0,
            "source" : 2
        },
        {
            "sampler" : 0,
            "source" : 3
        }
    ],
    "images" : [
        {
            "bufferView" : 4,
            "mimeType" : "image/jpeg",
            "name" : "_16"
        },
        {
            "bufferView" : 9,
            "mimeType" : "image/jpeg",
            "name" : "Tile_Travertine_2inch"
        },
        {
            "bufferView" : 14,
            "mimeType" : "image/jpeg",
            "name" : "_Logs_"
        },
        {
            "bufferView" : 19,
            "mimeType" : "image/jpeg",
            "name" : "_Logs_1"
        }
    ],
    "accessors" : [
        {
            "bufferView" : 0,
            "componentType" : 5126,
            "count" : 436,
            "max" : [
                634.22802734375,
                -29.51020050048828,
                48.25
            ],
            "min" : [
                -151.52200317382812,
                -715.760009765625,
                -5.684339853201728e-14
            ],
            "type" : "VEC3"
        },
        {
            "bufferView" : 1,
            "componentType" : 5126,
            "count" : 436,
            "type" : "VEC3"
        },
        {
            "bufferView" : 2,
            "componentType" : 5126,
            "count" : 436,
            "type" : "VEC2"
        },
        {
            "bufferView" : 3,
            "componentType" : 5123,
            "count" : 846,
            "type" : "SCALAR"
        },
        {
            "bufferView" : 5,
            "componentType" : 5126,
            "count" : 44,
            "max" : [
                634.22802734375,
                -29.51020050048828,
                48.25
            ],
            "min" : [
                -151.52200317382812,
                -715.760009765625,
                48.25
            ],
            "type" : "VEC3"
        },
        {
            "bufferView" : 6,
            "componentType" : 5126,
            "count" : 44,
            "type" : "VEC3"
        },
        {
            "bufferView" : 7,
            "componentType" : 5126,
            "count" : 44,
            "type" : "VEC2"
        },
        {
            "bufferView" : 8,
            "componentType" : 5123,
            "count" : 102,
            "type" : "SCALAR"
        },
        {
            "bufferView" : 10,
            "componentType" : 5126,
            "count" : 576,
            "max" : [
                541.3809814453125,
                -127.06700134277344,
                -12.87030029296875
            ],
            "min" : [
                -54.22010040283203,
                -635.3460083007812,
                -28.209199905395508
            ],
            "type" : "VEC3"
        },
        {
            "bufferView" : 11,
            "componentType" : 5126,
            "count" : 576,
            "type" : "VEC3"
        },
        {
            "bufferView" : 12,
            "componentType" : 5126,
            "count" : 576,
            "type" : "VEC2"
        },
        {
            "bufferView" : 13,
            "componentType" : 5123,
            "count" : 1008,
            "type" : "SCALAR"
        },
        {
            "bufferView" : 15,
            "componentType" : 5126,
            "count" : 96,
            "max" : [
                541.3809814453125,
                -128.66000366210938,
                -12.87030029296875
            ],
            "min" : [
                -54.22010040283203,
                -633.7529907226562,
                -24.608999252319336
            ],
            "type" : "VEC3"
        },
        {
            "bufferView" : 16,
            "componentType" : 5126,
            "count" : 96,
            "type" : "VEC3"
        },
        {
            "bufferView" : 17,
            "componentType" : 5126,
            "count" : 96,
            "type" : "VEC2"
        },
        {
            "bufferView" : 18,
            "componentType" : 5123,
            "count" : 144,
            "type" : "SCALAR"
        },
        {
            "bufferView" : 20,
            "componentType" : 5126,
            "count" : 1842,
            "max" : [
                541.3809814453125,
                -120.63300323486328,
                0.6192610263824463
            ],
            "min" : [
                -54.22010040283203,
                -641.780029296875,
                -29.05389976501465
            ],
            "type" : "VEC3"
        },
        {
            "bufferView" : 21,
            "componentType" : 5126,
            "count" : 1842,
            "type" : "VEC3"
        },
        {
            "bufferView" : 22,
            "componentType" : 5126,
            "count" : 1842,
            "type" : "VEC2"
        },
        {
            "bufferView" : 23,
            "componentType" : 5123,
            "count" : 3636,
            "type" : "SCALAR"
        },
        {
            "bufferView" : 24,
            "componentType" : 5126,
            "count" : 412,
            "max" : [
                541.3809814453125,
                -122.20800018310547,
                0.6192610263824463
            ],
            "min" : [
                -54.22010040283203,
                -640.2050170898438,
                -29.05389976501465
            ],
            "type" : "VEC3"
        },
        {
            "bufferView" : 25,
            "componentType" : 5126,
            "count" : 412,
            "type" : "VEC3"
        },
        {
            "bufferView" : 26,
            "componentType" : 5126,
            "count" : 412,
            "type" : "VEC2"
        },
        {
            "bufferView" : 27,
            "componentType" : 5123,
            "count" : 684,
            "type" : "SCALAR"
        }
    ],
    "bufferViews" : [
        {
            "buffer" : 0,
            "byteLength" : 5232,
            "byteOffset" : 0
        },
        {
            "buffer" : 0,
            "byteLength" : 5232,
            "byteOffset" : 5232
        },
        {
            "buffer" : 0,
            "byteLength" : 3488,
            "byteOffset" : 10464
        },
        {
            "buffer" : 0,
            "byteLength" : 1692,
            "byteOffset" : 13952
        },
        {
            "buffer" : 0,
            "byteLength" : 9999,
            "byteOffset" : 15644
        },
        {
            "buffer" : 0,
            "byteLength" : 528,
            "byteOffset" : 25644
        },
        {
            "buffer" : 0,
            "byteLength" : 528,
            "byteOffset" : 26172
        },
        {
            "buffer" : 0,
            "byteLength" : 352,
            "byteOffset" : 26700
        },
        {
            "buffer" : 0,
            "byteLength" : 204,
            "byteOffset" : 27052
        },
        {
            "buffer" : 0,
            "byteLength" : 10278,
            "byteOffset" : 27256
        },
        {
            "buffer" : 0,
            "byteLength" : 6912,
            "byteOffset" : 37536
        },
        {
            "buffer" : 0,
            "byteLength" : 6912,
            "byteOffset" : 44448
        },
        {
            "buffer" : 0,
            "byteLength" : 4608,
            "byteOffset" : 51360
        },
        {
            "buffer" : 0,
            "byteLength" : 2016,
            "byteOffset" : 55968
        },
        {
            "buffer" : 0,
            "byteLength" : 17601,
            "byteOffset" : 57984
        },
        {
            "buffer" : 0,
            "byteLength" : 1152,
            "byteOffset" : 75588
        },
        {
            "buffer" : 0,
            "byteLength" : 1152,
            "byteOffset" : 76740
        },
        {
            "buffer" : 0,
            "byteLength" : 768,
            "byteOffset" : 77892
        },
        {
            "buffer" : 0,
            "byteLength" : 288,
            "byteOffset" : 78660
        },
        {
            "buffer" : 0,
            "byteLength" : 16080,
            "byteOffset" : 78948
        },
        {
            "buffer" : 0,
            "byteLength" : 22104,
            "byteOffset" : 95028
        },
        {
            "buffer" : 0,
            "byteLength" : 22104,
            "byteOffset" : 117132
        },
        {
            "buffer" : 0,
            "byteLength" : 14736,
            "byteOffset" : 139236
        },
        {
            "buffer" : 0,
            "byteLength" : 7272,
            "byteOffset" : 153972
        },
        {
            "buffer" : 0,
            "byteLength" : 4944,
            "byteOffset" : 161244
        },
        {
            "buffer" : 0,
            "byteLength" : 4944,
            "byteOffset" : 166188
        },
        {
            "buffer" : 0,
            "byteLength" : 3296,
            "byteOffset" : 171132
        },
        {
            "buffer" : 0,
            "byteLength" : 1368,
            "byteOffset" : 174428
        }
    ],
    "samplers" : [
        {
            "magFilter" : 9729,
            "minFilter" : 9987
        }
    ],
    "buffers" : [
        {
            "byteLength" : 175796,
            "uri" : "data:application/octet-stream;base64,"
        }
    ]
}
