{
    "asset" : {
        "generator" : "Khronos glTF Blender I/O v1.5.17",
        "version" : "2.0"
    },
    "scene" : 0,
    "scenes" : [
        {
            "name" : "Scene",
            "nodes" : [
                0
            ]
        }
    ],
    "nodes" : [
        {
            "mesh" : 0,
            "name" : "uploads_files_895462_isometricroom (1)",
            "rotation" : [
                0.7071068286895752,
                0,
                0,
                0.7071067094802856
            ]
        }
    ],
    "materials" : [
        {
            "doubleSided" : true,
            "name" : "table",
            "pbrMetallicRoughness" : {
                "baseColorFactor" : [
                    0.800000011920929,
                    0.800000011920929,
                    0.800000011920929,
                    1
                ],
                "metallicFactor" : 0,
                "roughnessFactor" : 0.5
            }
        },
        {
            "doubleSided" : true,
            "name" : "monitor",
            "pbrMetallicRoughness" : {
                "baseColorFactor" : [
                    0.800000011920929,
                    0.800000011920929,
                    0.800000011920929,
                    1
                ],
                "metallicFactor" : 0,
                "roughnessFactor" : 0.5
            }
        },
        {
            "doubleSided" : true,
            "name" : "backchair",
            "pbrMetallicRoughness" : {
                "baseColorFactor" : [
                    0.800000011920929,
                    0.800000011920929,
                    0.800000011920929,
                    1
                ],
                "metallicFactor" : 0,
                "roughnessFactor" : 0.5
            }
        },
        {
            "doubleSided" : true,
            "name" : "sidenye",
            "pbrMetallicRoughness" : {
                "baseColorFactor" : [
                    0.800000011920929,
                    0.800000011920929,
                    0.800000011920929,
                    1
                ],
                "metallicFactor" : 0,
                "roughnessFactor" : 0.5
            }
        },
        {
            "doubleSided" : true,
            "name" : "glass",
            "pbrMetallicRoughness" : {
                "baseColorFactor" : [
                    0.800000011920929,
                    0.800000011920929,
                    0.800000011920929,
                    1
                ],
                "metallicFactor" : 0,
                "roughnessFactor" : 0.5
            }
        },
        {
            "doubleSided" : true,
            "name" : "window",
            "pbrMetallicRoughness" : {
                "baseColorFactor" : [
                    0.800000011920929,
                    0.800000011920929,
                    0.800000011920929,
                    1
                ],
                "metallicFactor" : 0,
                "roughnessFactor" : 0.5
            }
        },
        {
            "doubleSided" : true,
            "name" : "klavishi",
            "pbrMetallicRoughness" : {
                "baseColorFactor" : [
                    0.800000011920929,
                    0.800000011920929,
                    0.800000011920929,
                    1
                ],
                "metallicFactor" : 0,
                "roughnessFactor" : 0.5
            }
        },
        {
            "doubleSided" : true,
            "name" : "black",
            "pbrMetallicRoughness" : {
                "baseColorFactor" : [
                    0.800000011920929,
                    0.800000011920929,
                    0.800000011920929,
                    1
                ],
                "metallicFactor" : 0,
                "roughnessFactor" : 0.5
            }
        },
        {
            "doubleSided" : true,
            "name" : "keyboard",
            "pbrMetallicRoughness" : {
                "baseColorFactor" : [
                    0.800000011920929,
                    0.800000011920929,
                    0.800000011920929,
                    1
                ],
                "metallicFactor" : 0,
                "roughnessFactor" : 0.5
            }
        }
    ],
    "meshes" : [
        {
            "name" : "uploads_files_895462_isometricroom (1)",
            "primitives" : [
                {
                    "attributes" : {
                        "POSITION" : 0,
                        "NORMAL" : 1,
                        "TEXCOORD_0" : 2
                    },
                    "indices" : 3,
                    "material" : 0
                },
                {
                    "attributes" : {
                        "POSITION" : 4,
                        "NORMAL" : 5,
                        "TEXCOORD_0" : 6
                    },
                    "indices" : 7,
                    "material" : 1
                },
                {
                    "attributes" : {
                        "POSITION" : 8,
                        "NORMAL" : 9,
                        "TEXCOORD_0" : 10
                    },
                    "indices" : 11,
                    "material" : 2
                },
                {
                    "attributes" : {
                        "POSITION" : 12,
                        "NORMAL" : 13,
                        "TEXCOORD_0" : 14
                    },
                    "indices" : 15,
                    "material" : 3
                },
                {
                    "attributes" : {
                        "POSITION" : 16,
                        "NORMAL" : 17,
                        "TEXCOORD_0" : 18
                    },
                    "indices" : 19,
                    "material" : 4
                },
                {
                    "attributes" : {
                        "POSITION" : 20,
                        "NORMAL" : 21,
                        "TEXCOORD_0" : 22
                    },
                    "indices" : 23,
                    "material" : 5
                },
                {
                    "attributes" : {
                        "POSITION" : 24,
                        "NORMAL" : 25,
                        "TEXCOORD_0" : 26
                    },
                    "indices" : 27,
                    "material" : 6
                },
                {
                    "attributes" : {
                        "POSITION" : 28,
                        "NORMAL" : 29,
                        "TEXCOORD_0" : 30
                    },
                    "indices" : 31,
                    "material" : 7
                },
                {
                    "attributes" : {
                        "POSITION" : 32,
                        "NORMAL" : 33,
                        "TEXCOORD_0" : 34
                    },
                    "indices" : 35,
                    "material" : 8
                }
            ]
        }
    ],
    "accessors" : [
        {
            "bufferView" : 0,
            "componentType" : 5126,
            "count" : 207,
            "max" : [
                57.964900970458984,
                134.70700073242188,
                -1.1077799797058105
            ],
            "min" : [
                -203.92999267578125,
                -262.27301025390625,
                -201.21299743652344
            ],
            "type" : "VEC3"
        },
        {
            "bufferView" : 1,
            "componentType" : 5126,
            "count" : 207,
            "type" : "VEC3"
        },
        {
            "bufferView" : 2,
            "componentType" : 5126,
            "count" : 207,
            "type" : "VEC2"
        },
        {
            "bufferView" : 3,
            "componentType" : 5123,
            "count" : 312,
            "type" : "SCALAR"
        },
        {
            "bufferView" : 4,
            "componentType" : 5126,
            "count" : 48,
            "max" : [
                -175.8719940185547,
                23.742399215698242,
                -81.45059967041016
            ],
            "min" : [
                -203.4739990234375,
                -209.35400390625,
                -188.38099670410156
            ],
            "type" : "VEC3"
        },
        {
            "bufferView" : 5,
            "componentType" : 5126,
            "count" : 48,
            "type" : "VEC3"
        },
        {
            "bufferView" : 6,
            "componentType" : 5126,
            "count" : 48,
            "type" : "VEC2"
        },
        {
            "bufferView" : 7,
            "componentType" : 5123,
            "count" : 72,
            "type" : "SCALAR"
        },
        {
            "bufferView" : 8,
            "componentType" : 5126,
            "count" : 1704,
            "max" : [
                156.4949951171875,
                119.33000183105469,
                0
            ],
            "min" : [
                -243.5050048828125,
                -280.6700134277344,
                -251.3209991455078
            ],
            "type" : "VEC3"
        },
        {
            "bufferView" : 9,
            "componentType" : 5126,
            "count" : 1704,
            "type" : "VEC3"
        },
        {
            "bufferView" : 10,
            "componentType" : 5126,
            "count" : 1704,
            "type" : "VEC2"
        },
        {
            "bufferView" : 11,
            "componentType" : 5123,
            "count" : 4032,
            "type" : "SCALAR"
        },
        {
            "bufferView" : 12,
            "componentType" : 5126,
            "count" : 3070,
            "max" : [
                -43.990299224853516,
                37.27980041503906,
                -27.834999084472656
            ],
            "min" : [
                -205.13999938964844,
                -203.0540008544922,
                -104.16400146484375
            ],
            "type" : "VEC3"
        },
        {
            "bufferView" : 13,
            "componentType" : 5126,
            "count" : 3070,
            "type" : "VEC3"
        },
        {
            "bufferView" : 14,
            "componentType" : 5126,
            "count" : 3070,
            "type" : "VEC2"
        },
        {
            "bufferView" : 15,
            "componentType" : 5123,
            "count" : 4536,
            "type" : "SCALAR"
        },
        {
            "bufferView" : 16,
            "componentType" : 5126,
            "count" : 24,
            "max" : [
                22.645999908447266,
                99.70700073242188,
                -91.21299743652344
            ],
            "min" : [
                -107.35399627685547,
                98.70700073242188,
                -191.21299743652344
            ],
            "type" : "VEC3"
        },
        {
            "bufferView" : 17,
            "componentType" : 5126,
            "count" : 24,
            "type" : "VEC3"
        },
        {
            "bufferView" : 18,
            "componentType" : 5126,
            "count" : 24,
            "type" : "VEC2"
        },
        {
            "bufferView" : 19,
            "componentType" : 5123,
            "count" : 36,
            "type" : "SCALAR"
        },
        {
            "bufferView" : 20,
            "componentType" : 5126,
            "count" : 144,
            "max" : [
                64.24410247802734,
                99.1364974975586,
                -41.9635009765625
            ],
            "min" : [
                -203.49200439453125,
                -260.99798583984375,
                -241.9669952392578
            ],
            "type" : "VEC3"
        },
        {
            "bufferView" : 21,
            "componentType" : 5126,
            "count" : 144,
            "type" : "VEC3"
        },
        {
            "bufferView" : 22,
            "componentType" : 5126,
            "count" : 144,
            "type" : "VEC2"
        },
        {
            "bufferView" : 23,
            "componentType" : 5123,
            "count" : 216,
            "type" : "SCALAR"
        },
        {
            "bufferView" : 24,
            "componentType" : 5126,
            "count" : 1728,
            "max" : [
                -126.87699890136719,
                -160.1479949951172,
                -72.16500091552734
            ],
            "min" : [
                -150.3070068359375,
                -197.78700256347656,
                -72.47820281982422
            ],
            "type" : "VEC3"
        },
        {
            "bufferView" : 25,
            "componentType" : 5126,
            "count" : 1728,
            "type" : "VEC3"
        },
        {
            "bufferView" : 26,
            "componentType" : 5126,
            "count" : 1728,
            "type" : "VEC2"
        },
        {
            "bufferView" : 27,
            "componentType" : 5123,
            "count" : 2592,
            "type" : "SCALAR"
        },
        {
            "bufferView" : 28,
            "componentType" : 5126,
            "count" : 306,
            "max" : [
                -175.14700317382812,
                -160.40199279785156,
                -70.1676025390625
            ],
            "min" : [
                -189.63800048828125,
                -211.73300170898438,
                -115.05999755859375
            ],
            "type" : "VEC3"
        },
        {
            "bufferView" : 29,
            "componentType" : 5126,
            "count" : 306,
            "type" : "VEC3"
        },
        {
            "bufferView" : 30,
            "componentType" : 5126,
            "count" : 306,
            "type" : "VEC2"
        },
        {
            "bufferView" : 31,
            "componentType" : 5123,
            "count" : 504,
            "type" : "SCALAR"
        },
        {
            "bufferView" : 32,
            "componentType" : 5126,
            "count" : 524,
            "max" : [
                -44.322200775146484,
                -144.77999877929688,
                0.5055779814720154
            ],
            "min" : [
                -154.41000366210938,
                -208.36099243164062,
                -72.21410369873047
            ],
            "type" : "VEC3"
        },
        {
            "bufferView" : 33,
            "componentType" : 5126,
            "count" : 524,
            "type" : "VEC3"
        },
        {
            "bufferView" : 34,
            "componentType" : 5126,
            "count" : 524,
            "type" : "VEC2"
        },
        {
            "bufferView" : 35,
            "componentType" : 5123,
            "count" : 636,
            "type" : "SCALAR"
        }
    ],
    "bufferViews" : [
        {
            "buffer" : 0,
            "byteLength" : 2484,
            "byteOffset" : 0
        },
        {
            "buffer" : 0,
            "byteLength" : 2484,
            "byteOffset" : 2484
        },
        {
            "buffer" : 0,
            "byteLength" : 1656,
            "byteOffset" : 4968
        },
        {
            "buffer" : 0,
            "byteLength" : 624,
            "byteOffset" : 6624
        },
        {
            "buffer" : 0,
            "byteLength" : 576,
            "byteOffset" : 7248
        },
        {
            "buffer" : 0,
            "byteLength" : 576,
            "byteOffset" : 7824
        },
        {
            "buffer" : 0,
            "byteLength" : 384,
            "byteOffset" : 8400
        },
        {
            "buffer" : 0,
            "byteLength" : 144,
            "byteOffset" : 8784
        },
        {
            "buffer" : 0,
            "byteLength" : 20448,
            "byteOffset" : 8928
        },
        {
            "buffer" : 0,
            "byteLength" : 20448,
            "byteOffset" : 29376
        },
        {
            "buffer" : 0,
            "byteLength" : 13632,
            "byteOffset" : 49824
        },
        {
            "buffer" : 0,
            "byteLength" : 8064,
            "byteOffset" : 63456
        },
        {
            "buffer" : 0,
            "byteLength" : 36840,
            "byteOffset" : 71520
        },
        {
            "buffer" : 0,
            "byteLength" : 36840,
            "byteOffset" : 108360
        },
        {
            "buffer" : 0,
            "byteLength" : 24560,
            "byteOffset" : 145200
        },
        {
            "buffer" : 0,
            "byteLength" : 9072,
            "byteOffset" : 169760
        },
        {
            "buffer" : 0,
            "byteLength" : 288,
            "byteOffset" : 178832
        },
        {
            "buffer" : 0,
            "byteLength" : 288,
            "byteOffset" : 179120
        },
        {
            "buffer" : 0,
            "byteLength" : 192,
            "byteOffset" : 179408
        },
        {
            "buffer" : 0,
            "byteLength" : 72,
            "byteOffset" : 179600
        },
        {
            "buffer" : 0,
            "byteLength" : 1728,
            "byteOffset" : 179672
        },
        {
            "buffer" : 0,
            "byteLength" : 1728,
            "byteOffset" : 181400
        },
        {
            "buffer" : 0,
            "byteLength" : 1152,
            "byteOffset" : 183128
        },
        {
            "buffer" : 0,
            "byteLength" : 432,
            "byteOffset" : 184280
        },
        {
            "buffer" : 0,
            "byteLength" : 20736,
            "byteOffset" : 184712
        },
        {
            "buffer" : 0,
            "byteLength" : 20736,
            "byteOffset" : 205448
        },
        {
            "buffer" : 0,
            "byteLength" : 13824,
            "byteOffset" : 226184
        },
        {
            "buffer" : 0,
            "byteLength" : 5184,
            "byteOffset" : 240008
        },
        {
            "buffer" : 0,
            "byteLength" : 3672,
            "byteOffset" : 245192
        },
        {
            "buffer" : 0,
            "byteLength" : 3672,
            "byteOffset" : 248864
        },
        {
            "buffer" : 0,
            "byteLength" : 2448,
            "byteOffset" : 252536
        },
        {
            "buffer" : 0,
            "byteLength" : 1008,
            "byteOffset" : 254984
        },
        {
            "buffer" : 0,
            "byteLength" : 6288,
            "byteOffset" : 255992
        },
        {
            "buffer" : 0,
            "byteLength" : 6288,
            "byteOffset" : 262280
        },
        {
            "buffer" : 0,
            "byteLength" : 4192,
            "byteOffset" : 268568
        },
        {
            "buffer" : 0,
            "byteLength" : 1272,
            "byteOffset" : 272760
        }
    ],
    "buffers" : [
        {
            "byteLength" : 274032,
            "uri" : "data:application/octet-stream;base64,"
        }
    ]
}
