{
    "asset" : {
        "generator" : "Khronos glTF Blender I/O v1.5.17",
        "version" : "2.0"
    },
    "scene" : 0,
    "scenes" : [
        {
            "name" : "Scene",
            "nodes" : [
                0
            ]
        }
    ],
    "nodes" : [
        {
            "mesh" : 0,
            "name" : "RED_BRICK_PILE_MEDUIM_5K_RED_BRICK_PILE_MEDUIM_500K.001",
            "rotation" : [
                0.7071068286895752,
                0,
                0,
                0.7071067094802856
            ]
        }
    ],
    "materials" : [
        {
            "doubleSided" : true,
            "name" : "RBPmed_mat",
            "pbrMetallicRoughness" : {
                "baseColorFactor" : [
                    0.800000011920929,
                    0.800000011920929,
                    0.800000011920929,
                    1
                ],
                "metallicFactor" : 0,
                "roughnessFactor" : 0.5
            }
        }
    ],
    "meshes" : [
        {
            "name" : "RED_BRICK_PILE_MEDUIM_5K_RED_BRICK_PILE_MEDUIM_500K.001",
            "primitives" : [
                {
                    "attributes" : {
                        "POSITION" : 0,
                        "NORMAL" : 1,
                        "TEXCOORD_0" : 2
                    },
                    "indices" : 3,
                    "material" : 0
                }
            ]
        }
    ],
    "accessors" : [
        {
            "bufferView" : 0,
            "componentType" : 5126,
            "count" : 8720,
            "max" : [
                1.2414300441741943,
                1.0547809600830078,
                0.020483000203967094
            ],
            "min" : [
                -1.2132090330123901,
                -1.2485920190811157,
                -0.8068649768829346
            ],
            "type" : "VEC3"
        },
        {
            "bufferView" : 1,
            "componentType" : 5126,
            "count" : 8720,
            "type" : "VEC3"
        },
        {
            "bufferView" : 2,
            "componentType" : 5126,
            "count" : 8720,
            "type" : "VEC2"
        },
        {
            "bufferView" : 3,
            "componentType" : 5123,
            "count" : 14463,
            "type" : "SCALAR"
        }
    ],
    "bufferViews" : [
        {
            "buffer" : 0,
            "byteLength" : 104640,
            "byteOffset" : 0
        },
        {
            "buffer" : 0,
            "byteLength" : 104640,
            "byteOffset" : 104640
        },
        {
            "buffer" : 0,
            "byteLength" : 69760,
            "byteOffset" : 209280
        },
        {
            "buffer" : 0,
            "byteLength" : 28926,
            "byteOffset" : 279040
        }
    ],
    "buffers" : [
        {
            "byteLength" : 307968,
            "uri" : "data:application/octet-stream;base64,"
        }
    ]
}
