{
    "asset" : {
        "generator" : "Khronos glTF Blender I/O v1.5.17",
        "version" : "2.0"
    },
    "scene" : 0,
    "scenes" : [
        {
            "name" : "Scene",
            "nodes" : [
                0,
                1,
                2,
                3,
                4,
                5,
                6,
                7
            ]
        }
    ],
    "nodes" : [
        {
            "mesh" : 0,
            "name" : "Skeletal_Cervical_Vertebra",
            "rotation" : [
                0.7071068286895752,
                0,
                0,
                0.7071067094802856
            ],
            "scale" : [
                0.29962900280952454,
                0.4148935079574585,
                0.2674599885940552
            ],
            "translation" : [
                0,
                -31.887496948242188,
                0
            ]
        },
        {
            "mesh" : 1,
            "name" : "Skeletal_Clavicle",
            "rotation" : [
                0.7071068286895752,
                0,
                0,
                0.7071067094802856
            ],
            "scale" : [
                0.29962900280952454,
                0.4148935079574585,
                0.2674599885940552
            ],
            "translation" : [
                0,
                -31.887496948242188,
                0
            ]
        },
        {
            "name" : "Skeletal_Cranium",
            "rotation" : [
                0.7071068286895752,
                0,
                0,
                0.7071067094802856
            ],
            "scale" : [
                0.29962900280952454,
                0.4148935079574585,
                0.2674599885940552
            ]
        },
        {
            "mesh" : 2,
            "name" : "Skeletal_Mandible",
            "rotation" : [
                0.7071068286895752,
                0,
                0,
                0.7071067094802856
            ],
            "scale" : [
                0.29962900280952454,
                0.4148935079574585,
                0.2674599885940552
            ],
            "translation" : [
                0,
                -31.887496948242188,
                0
            ]
        },
        {
            "mesh" : 3,
            "name" : "Skeletal_Ribs",
            "rotation" : [
                0.7071068286895752,
                0,
                0,
                0.7071067094802856
            ],
            "scale" : [
                0.29962900280952454,
                0.4148935079574585,
                0.2674599885940552
            ],
            "translation" : [
                0,
                -31.887496948242188,
                0
            ]
        },
        {
            "mesh" : 4,
            "name" : "Skeletal_Scapula",
            "rotation" : [
                0.7071068286895752,
                0,
                0,
                0.7071067094802856
            ],
            "scale" : [
                0.29962900280952454,
                0.4148935079574585,
                0.2674599885940552
            ],
            "translation" : [
                0,
                -31.887496948242188,
                0
            ]
        },
        {
            "mesh" : 5,
            "name" : "Skeletal_Sternum",
            "rotation" : [
                0.7071068286895752,
                0,
                0,
                0.7071067094802856
            ],
            "scale" : [
                0.29962900280952454,
                0.4148935079574585,
                0.2674599885940552
            ],
            "translation" : [
                0,
                -31.887496948242188,
                0
            ]
        },
        {
            "mesh" : 6,
            "name" : "Skeletal_Vertebral_Column",
            "rotation" : [
                0.7071068286895752,
                0,
                0,
                0.7071067094802856
            ],
            "scale" : [
                0.29962900280952454,
                0.4148935079574585,
                0.2674599885940552
            ],
            "translation" : [
                0,
                -31.887496948242188,
                0
            ]
        }
    ],
    "materials" : [
        {
            "doubleSided" : true,
            "name" : "wire_000000000",
            "pbrMetallicRoughness" : {
                "baseColorFactor" : [
                    0.800000011920929,
                    0.800000011920929,
                    0.800000011920929,
                    1
                ],
                "metallicFactor" : 0,
                "roughnessFactor" : 0.5
            }
        }
    ],
    "meshes" : [
        {
            "name" : "Skeletal_Cervical_Vertebra",
            "primitives" : [
                {
                    "attributes" : {
                        "POSITION" : 0,
                        "NORMAL" : 1,
                        "TEXCOORD_0" : 2
                    },
                    "indices" : 3,
                    "material" : 0
                }
            ]
        },
        {
            "name" : "Skeletal_Clavicle",
            "primitives" : [
                {
                    "attributes" : {
                        "POSITION" : 4,
                        "NORMAL" : 5,
                        "TEXCOORD_0" : 6
                    },
                    "indices" : 7,
                    "material" : 0
                }
            ]
        },
        {
            "name" : "Skeletal_Mandible",
            "primitives" : [
                {
                    "attributes" : {
                        "POSITION" : 8,
                        "NORMAL" : 9,
                        "TEXCOORD_0" : 10
                    },
                    "indices" : 11,
                    "material" : 0
                }
            ]
        },
        {
            "name" : "Skeletal_Ribs",
            "primitives" : [
                {
                    "attributes" : {
                        "POSITION" : 12,
                        "NORMAL" : 13,
                        "TEXCOORD_0" : 14
                    },
                    "indices" : 15,
                    "material" : 0
                }
            ]
        },
        {
            "name" : "Skeletal_Scapula",
            "primitives" : [
                {
                    "attributes" : {
                        "POSITION" : 16,
                        "NORMAL" : 17,
                        "TEXCOORD_0" : 18
                    },
                    "indices" : 19,
                    "material" : 0
                }
            ]
        },
        {
            "name" : "Skeletal_Sternum",
            "primitives" : [
                {
                    "attributes" : {
                        "POSITION" : 20,
                        "NORMAL" : 21,
                        "TEXCOORD_0" : 22
                    },
                    "indices" : 23,
                    "material" : 0
                }
            ]
        },
        {
            "name" : "Skeletal_Vertebral_Column",
            "primitives" : [
                {
                    "attributes" : {
                        "POSITION" : 24,
                        "NORMAL" : 25,
                        "TEXCOORD_0" : 26
                    },
                    "indices" : 27,
                    "material" : 0
                }
            ]
        }
    ],
    "accessors" : [
        {
            "bufferView" : 0,
            "componentType" : 5126,
            "count" : 3583,
            "max" : [
                4.192317962646484,
                -5.464468002319336,
                -155.28594970703125
            ],
            "min" : [
                -4.192317962646484,
                -14.509188652038574,
                -165.954345703125
            ],
            "type" : "VEC3"
        },
        {
            "bufferView" : 1,
            "componentType" : 5126,
            "count" : 3583,
            "type" : "VEC3"
        },
        {
            "bufferView" : 2,
            "componentType" : 5126,
            "count" : 3583,
            "type" : "VEC2"
        },
        {
            "bufferView" : 3,
            "componentType" : 5123,
            "count" : 17982,
            "type" : "SCALAR"
        },
        {
            "bufferView" : 4,
            "componentType" : 5126,
            "count" : 506,
            "max" : [
                15.658138275146484,
                -3.561821937561035,
                -149.06576538085938
            ],
            "min" : [
                -15.658138275146484,
                -12.542067527770996,
                -153.47189331054688
            ],
            "type" : "VEC3"
        },
        {
            "bufferView" : 5,
            "componentType" : 5126,
            "count" : 506,
            "type" : "VEC3"
        },
        {
            "bufferView" : 6,
            "componentType" : 5126,
            "count" : 506,
            "type" : "VEC2"
        },
        {
            "bufferView" : 7,
            "componentType" : 5123,
            "count" : 2688,
            "type" : "SCALAR"
        },
        {
            "bufferView" : 8,
            "componentType" : 5126,
            "count" : 7392,
            "max" : [
                5.739500045776367,
                4.600894927978516,
                -159.77645874023438
            ],
            "min" : [
                -5.744262218475342,
                -3.3621699810028076,
                -169.2854461669922
            ],
            "type" : "VEC3"
        },
        {
            "bufferView" : 9,
            "componentType" : 5126,
            "count" : 7392,
            "type" : "VEC3"
        },
        {
            "bufferView" : 10,
            "componentType" : 5126,
            "count" : 7392,
            "type" : "VEC2"
        },
        {
            "bufferView" : 11,
            "componentType" : 5123,
            "count" : 37560,
            "type" : "SCALAR"
        },
        {
            "bufferView" : 12,
            "componentType" : 5126,
            "count" : 3308,
            "max" : [
                14.582632064819336,
                1.1221179962158203,
                -118.983154296875
            ],
            "min" : [
                -14.582632064819336,
                -19.751468658447266,
                -155.50662231445312
            ],
            "type" : "VEC3"
        },
        {
            "bufferView" : 13,
            "componentType" : 5126,
            "count" : 3308,
            "type" : "VEC3"
        },
        {
            "bufferView" : 14,
            "componentType" : 5126,
            "count" : 3308,
            "type" : "VEC2"
        },
        {
            "bufferView" : 15,
            "componentType" : 5123,
            "count" : 16968,
            "type" : "SCALAR"
        },
        {
            "bufferView" : 16,
            "componentType" : 5126,
            "count" : 2008,
            "max" : [
                17.89035415649414,
                -10.127908706665039,
                -132.95571899414062
            ],
            "min" : [
                -17.89035415649414,
                -21.49221420288086,
                -152.38327026367188
            ],
            "type" : "VEC3"
        },
        {
            "bufferView" : 17,
            "componentType" : 5126,
            "count" : 2008,
            "type" : "VEC3"
        },
        {
            "bufferView" : 18,
            "componentType" : 5126,
            "count" : 2008,
            "type" : "VEC2"
        },
        {
            "bufferView" : 19,
            "componentType" : 5123,
            "count" : 10572,
            "type" : "SCALAR"
        },
        {
            "bufferView" : 20,
            "componentType" : 5126,
            "count" : 1820,
            "max" : [
                11.74496841430664,
                2.644834041595459,
                -119.75772094726562
            ],
            "min" : [
                -11.74496841430664,
                -7.520978927612305,
                -151.55133056640625
            ],
            "type" : "VEC3"
        },
        {
            "bufferView" : 21,
            "componentType" : 5126,
            "count" : 1820,
            "type" : "VEC3"
        },
        {
            "bufferView" : 22,
            "componentType" : 5126,
            "count" : 1820,
            "type" : "VEC2"
        },
        {
            "bufferView" : 23,
            "componentType" : 5123,
            "count" : 8856,
            "type" : "SCALAR"
        },
        {
            "bufferView" : 24,
            "componentType" : 5126,
            "count" : 16566,
            "max" : [
                4.452148914337158,
                -6.974778175354004,
                -103.01141357421875
            ],
            "min" : [
                -4.452148914337158,
                -20.312259674072266,
                -157.782958984375
            ],
            "type" : "VEC3"
        },
        {
            "bufferView" : 25,
            "componentType" : 5126,
            "count" : 16566,
            "type" : "VEC3"
        },
        {
            "bufferView" : 26,
            "componentType" : 5126,
            "count" : 16566,
            "type" : "VEC2"
        },
        {
            "bufferView" : 27,
            "componentType" : 5123,
            "count" : 83028,
            "type" : "SCALAR"
        }
    ],
    "bufferViews" : [
        {
            "buffer" : 0,
            "byteLength" : 42996,
            "byteOffset" : 0
        },
        {
            "buffer" : 0,
            "byteLength" : 42996,
            "byteOffset" : 42996
        },
        {
            "buffer" : 0,
            "byteLength" : 28664,
            "byteOffset" : 85992
        },
        {
            "buffer" : 0,
            "byteLength" : 35964,
            "byteOffset" : 114656
        },
        {
            "buffer" : 0,
            "byteLength" : 6072,
            "byteOffset" : 150620
        },
        {
            "buffer" : 0,
            "byteLength" : 6072,
            "byteOffset" : 156692
        },
        {
            "buffer" : 0,
            "byteLength" : 4048,
            "byteOffset" : 162764
        },
        {
            "buffer" : 0,
            "byteLength" : 5376,
            "byteOffset" : 166812
        },
        {
            "buffer" : 0,
            "byteLength" : 88704,
            "byteOffset" : 172188
        },
        {
            "buffer" : 0,
            "byteLength" : 88704,
            "byteOffset" : 260892
        },
        {
            "buffer" : 0,
            "byteLength" : 59136,
            "byteOffset" : 349596
        },
        {
            "buffer" : 0,
            "byteLength" : 75120,
            "byteOffset" : 408732
        },
        {
            "buffer" : 0,
            "byteLength" : 39696,
            "byteOffset" : 483852
        },
        {
            "buffer" : 0,
            "byteLength" : 39696,
            "byteOffset" : 523548
        },
        {
            "buffer" : 0,
            "byteLength" : 26464,
            "byteOffset" : 563244
        },
        {
            "buffer" : 0,
            "byteLength" : 33936,
            "byteOffset" : 589708
        },
        {
            "buffer" : 0,
            "byteLength" : 24096,
            "byteOffset" : 623644
        },
        {
            "buffer" : 0,
            "byteLength" : 24096,
            "byteOffset" : 647740
        },
        {
            "buffer" : 0,
            "byteLength" : 16064,
            "byteOffset" : 671836
        },
        {
            "buffer" : 0,
            "byteLength" : 21144,
            "byteOffset" : 687900
        },
        {
            "buffer" : 0,
            "byteLength" : 21840,
            "byteOffset" : 709044
        },
        {
            "buffer" : 0,
            "byteLength" : 21840,
            "byteOffset" : 730884
        },
        {
            "buffer" : 0,
            "byteLength" : 14560,
            "byteOffset" : 752724
        },
        {
            "buffer" : 0,
            "byteLength" : 17712,
            "byteOffset" : 767284
        },
        {
            "buffer" : 0,
            "byteLength" : 198792,
            "byteOffset" : 784996
        },
        {
            "buffer" : 0,
            "byteLength" : 198792,
            "byteOffset" : 983788
        },
        {
            "buffer" : 0,
            "byteLength" : 132528,
            "byteOffset" : 1182580
        },
        {
            "buffer" : 0,
            "byteLength" : 166056,
            "byteOffset" : 1315108
        }
    ],
    "buffers" : [
        {
            "byteLength" : 1481164,
            "uri" : "data:application/octet-stream;base64,"
        }
    ]
}
