{
    "asset" : {
        "generator" : "Khronos glTF Blender I/O v1.5.17",
        "version" : "2.0"
    },
    "scene" : 0,
    "scenes" : [
        {
            "name" : "Scene",
            "nodes" : [
                0
            ]
        }
    ],
    "nodes" : [
        {
            "mesh" : 0,
            "name" : "Flowers",
            "rotation" : [
                0.7071068286895752,
                0,
                0,
                0.7071067094802856
            ]
        }
    ],
    "materials" : [
        {
            "doubleSided" : true,
            "name" : "_1.003",
            "pbrMetallicRoughness" : {
                "baseColorFactor" : [
                    0.3294120132923126,
                    0.4196079969406128,
                    0.2627449929714203,
                    1
                ],
                "metallicFactor" : 0
            }
        },
        {
            "doubleSided" : true,
            "name" : "Material8",
            "pbrMetallicRoughness" : {
                "baseColorTexture" : {
                    "index" : 0
                },
                "metallicFactor" : 0
            }
        },
        {
            "doubleSided" : true,
            "name" : "Material3",
            "pbrMetallicRoughness" : {
                "baseColorTexture" : {
                    "index" : 1
                },
                "metallicFactor" : 0
            }
        },
        {
            "doubleSided" : true,
            "name" : "Material7",
            "pbrMetallicRoughness" : {
                "baseColorTexture" : {
                    "index" : 2
                },
                "metallicFactor" : 0
            }
        },
        {
            "doubleSided" : true,
            "name" : "_2.001",
            "pbrMetallicRoughness" : {
                "baseColorTexture" : {
                    "index" : 3
                },
                "metallicFactor" : 0
            }
        },
        {
            "doubleSided" : true,
            "name" : "Material5",
            "pbrMetallicRoughness" : {
                "baseColorTexture" : {
                    "index" : 4
                },
                "metallicFactor" : 0
            }
        },
        {
            "doubleSided" : true,
            "name" : "Material9",
            "pbrMetallicRoughness" : {
                "baseColorTexture" : {
                    "index" : 5
                },
                "metallicFactor" : 0
            }
        },
        {
            "doubleSided" : true,
            "name" : "Material6",
            "pbrMetallicRoughness" : {
                "baseColorTexture" : {
                    "index" : 6
                },
                "metallicFactor" : 0
            }
        },
        {
            "doubleSided" : true,
            "name" : "Material4",
            "pbrMetallicRoughness" : {
                "baseColorTexture" : {
                    "index" : 7
                },
                "metallicFactor" : 0
            }
        },
        {
            "doubleSided" : true,
            "name" : "Material10",
            "pbrMetallicRoughness" : {
                "baseColorTexture" : {
                    "index" : 8
                },
                "metallicFactor" : 0
            }
        },
        {
            "doubleSided" : true,
            "name" : "_11",
            "pbrMetallicRoughness" : {
                "baseColorFactor" : [
                    0.7725489735603333,
                    0.23137299716472626,
                    0.16078400611877441,
                    1
                ],
                "metallicFactor" : 0
            }
        }
    ],
    "meshes" : [
        {
            "name" : "Flowers",
            "primitives" : [
                {
                    "attributes" : {
                        "POSITION" : 0,
                        "NORMAL" : 1,
                        "TEXCOORD_0" : 2
                    },
                    "indices" : 3,
                    "material" : 0
                },
                {
                    "attributes" : {
                        "POSITION" : 4,
                        "NORMAL" : 5,
                        "TEXCOORD_0" : 6
                    },
                    "indices" : 7,
                    "material" : 1
                },
                {
                    "attributes" : {
                        "POSITION" : 8,
                        "NORMAL" : 9,
                        "TEXCOORD_0" : 10
                    },
                    "indices" : 11,
                    "material" : 2
                },
                {
                    "attributes" : {
                        "POSITION" : 12,
                        "NORMAL" : 13,
                        "TEXCOORD_0" : 14
                    },
                    "indices" : 11,
                    "material" : 3
                },
                {
                    "attributes" : {
                        "POSITION" : 15,
                        "NORMAL" : 16,
                        "TEXCOORD_0" : 17
                    },
                    "indices" : 7,
                    "material" : 4
                },
                {
                    "attributes" : {
                        "POSITION" : 18,
                        "NORMAL" : 19,
                        "TEXCOORD_0" : 20
                    },
                    "indices" : 21,
                    "material" : 5
                },
                {
                    "attributes" : {
                        "POSITION" : 22,
                        "NORMAL" : 23,
                        "TEXCOORD_0" : 24
                    },
                    "indices" : 25,
                    "material" : 6
                },
                {
                    "attributes" : {
                        "POSITION" : 26,
                        "NORMAL" : 27,
                        "TEXCOORD_0" : 28
                    },
                    "indices" : 11,
                    "material" : 7
                },
                {
                    "attributes" : {
                        "POSITION" : 29,
                        "NORMAL" : 30,
                        "TEXCOORD_0" : 31
                    },
                    "indices" : 32,
                    "material" : 8
                },
                {
                    "attributes" : {
                        "POSITION" : 33,
                        "NORMAL" : 34,
                        "TEXCOORD_0" : 35
                    },
                    "indices" : 36,
                    "material" : 9
                },
                {
                    "attributes" : {
                        "POSITION" : 37,
                        "NORMAL" : 38,
                        "TEXCOORD_0" : 39
                    },
                    "indices" : 40,
                    "material" : 10
                }
            ]
        }
    ],
    "textures" : [
        {
            "sampler" : 0,
            "source" : 0
        },
        {
            "sampler" : 0,
            "source" : 1
        },
        {
            "sampler" : 0,
            "source" : 2
        },
        {
            "sampler" : 0,
            "source" : 3
        },
        {
            "sampler" : 0,
            "source" : 4
        },
        {
            "sampler" : 0,
            "source" : 5
        },
        {
            "sampler" : 0,
            "source" : 6
        },
        {
            "sampler" : 0,
            "source" : 7
        },
        {
            "sampler" : 0,
            "source" : 8
        }
    ],
    "images" : [
        {
            "bufferView" : 8,
            "mimeType" : "image/jpeg",
            "name" : "Material8"
        },
        {
            "bufferView" : 13,
            "mimeType" : "image/jpeg",
            "name" : "Material3"
        },
        {
            "bufferView" : 17,
            "mimeType" : "image/jpeg",
            "name" : "Material7"
        },
        {
            "bufferView" : 21,
            "mimeType" : "image/jpeg",
            "name" : "_2"
        },
        {
            "bufferView" : 26,
            "mimeType" : "image/jpeg",
            "name" : "Material5"
        },
        {
            "bufferView" : 31,
            "mimeType" : "image/jpeg",
            "name" : "Material9"
        },
        {
            "bufferView" : 35,
            "mimeType" : "image/jpeg",
            "name" : "Material6"
        },
        {
            "bufferView" : 40,
            "mimeType" : "image/jpeg",
            "name" : "Material4"
        },
        {
            "bufferView" : 45,
            "mimeType" : "image/jpeg",
            "name" : "Material10"
        }
    ],
    "accessors" : [
        {
            "bufferView" : 0,
            "componentType" : 5126,
            "count" : 1726,
            "max" : [
                4.471970081329346,
                3.422800064086914,
                0.05000000074505806
            ],
            "min" : [
                -3.969599962234497,
                -4.367889881134033,
                -7.500790119171143
            ],
            "type" : "VEC3"
        },
        {
            "bufferView" : 1,
            "componentType" : 5126,
            "count" : 1726,
            "type" : "VEC3"
        },
        {
            "bufferView" : 2,
            "componentType" : 5126,
            "count" : 1726,
            "type" : "VEC2"
        },
        {
            "bufferView" : 3,
            "componentType" : 5123,
            "count" : 2085,
            "type" : "SCALAR"
        },
        {
            "bufferView" : 4,
            "componentType" : 5126,
            "count" : 1056,
            "max" : [
                3.3036201000213623,
                3.13100004196167,
                0.578486979007721
            ],
            "min" : [
                -2.1383299827575684,
                -4.08089017868042,
                -5.378680229187012
            ],
            "type" : "VEC3"
        },
        {
            "bufferView" : 5,
            "componentType" : 5126,
            "count" : 1056,
            "type" : "VEC3"
        },
        {
            "bufferView" : 6,
            "componentType" : 5126,
            "count" : 1056,
            "type" : "VEC2"
        },
        {
            "bufferView" : 7,
            "componentType" : 5123,
            "count" : 1056,
            "type" : "SCALAR"
        },
        {
            "bufferView" : 9,
            "componentType" : 5126,
            "count" : 1452,
            "max" : [
                3.0894100666046143,
                2.8638100624084473,
                0.05981770157814026
            ],
            "min" : [
                -3.564810037612915,
                -3.724139928817749,
                -6.25616979598999
            ],
            "type" : "VEC3"
        },
        {
            "bufferView" : 10,
            "componentType" : 5126,
            "count" : 1452,
            "type" : "VEC3"
        },
        {
            "bufferView" : 11,
            "componentType" : 5126,
            "count" : 1452,
            "type" : "VEC2"
        },
        {
            "bufferView" : 12,
            "componentType" : 5123,
            "count" : 1452,
            "type" : "SCALAR"
        },
        {
            "bufferView" : 14,
            "componentType" : 5126,
            "count" : 1452,
            "max" : [
                3.564579963684082,
                3.749959945678711,
                -0.2436700016260147
            ],
            "min" : [
                -4.741680145263672,
                -4.71334981918335,
                -6.4075398445129395
            ],
            "type" : "VEC3"
        },
        {
            "bufferView" : 15,
            "componentType" : 5126,
            "count" : 1452,
            "type" : "VEC3"
        },
        {
            "bufferView" : 16,
            "componentType" : 5126,
            "count" : 1452,
            "type" : "VEC2"
        },
        {
            "bufferView" : 18,
            "componentType" : 5126,
            "count" : 1056,
            "max" : [
                3.9187700748443604,
                3.7115700244903564,
                -0.47194600105285645
            ],
            "min" : [
                -3.2060000896453857,
                -3.017699956893921,
                -4.545000076293945
            ],
            "type" : "VEC3"
        },
        {
            "bufferView" : 19,
            "componentType" : 5126,
            "count" : 1056,
            "type" : "VEC3"
        },
        {
            "bufferView" : 20,
            "componentType" : 5126,
            "count" : 1056,
            "type" : "VEC2"
        },
        {
            "bufferView" : 22,
            "componentType" : 5126,
            "count" : 1584,
            "max" : [
                2.5443999767303467,
                3.285439968109131,
                0.13836100697517395
            ],
            "min" : [
                -3.5510199069976807,
                -3.498150110244751,
                -6.321849822998047
            ],
            "type" : "VEC3"
        },
        {
            "bufferView" : 23,
            "componentType" : 5126,
            "count" : 1584,
            "type" : "VEC3"
        },
        {
            "bufferView" : 24,
            "componentType" : 5126,
            "count" : 1584,
            "type" : "VEC2"
        },
        {
            "bufferView" : 25,
            "componentType" : 5123,
            "count" : 1584,
            "type" : "SCALAR"
        },
        {
            "bufferView" : 27,
            "componentType" : 5126,
            "count" : 1320,
            "max" : [
                3.6775600910186768,
                2.821589946746826,
                0.16536299884319305
            ],
            "min" : [
                -3.330009937286377,
                -3.6493899822235107,
                -6.797359943389893
            ],
            "type" : "VEC3"
        },
        {
            "bufferView" : 28,
            "componentType" : 5126,
            "count" : 1320,
            "type" : "VEC3"
        },
        {
            "bufferView" : 29,
            "componentType" : 5126,
            "count" : 1320,
            "type" : "VEC2"
        },
        {
            "bufferView" : 30,
            "componentType" : 5123,
            "count" : 1320,
            "type" : "SCALAR"
        },
        {
            "bufferView" : 32,
            "componentType" : 5126,
            "count" : 1452,
            "max" : [
                3.903280019760132,
                4.061270236968994,
                0.2369370013475418
            ],
            "min" : [
                -3.856719970703125,
                -3.245120048522949,
                -4.828249931335449
            ],
            "type" : "VEC3"
        },
        {
            "bufferView" : 33,
            "componentType" : 5126,
            "count" : 1452,
            "type" : "VEC3"
        },
        {
            "bufferView" : 34,
            "componentType" : 5126,
            "count" : 1452,
            "type" : "VEC2"
        },
        {
            "bufferView" : 36,
            "componentType" : 5126,
            "count" : 792,
            "max" : [
                2.9054698944091797,
                3.3117098808288574,
                0.42097100615501404
            ],
            "min" : [
                -3.3016300201416016,
                0.4027099907398224,
                -6.303540229797363
            ],
            "type" : "VEC3"
        },
        {
            "bufferView" : 37,
            "componentType" : 5126,
            "count" : 792,
            "type" : "VEC3"
        },
        {
            "bufferView" : 38,
            "componentType" : 5126,
            "count" : 792,
            "type" : "VEC2"
        },
        {
            "bufferView" : 39,
            "componentType" : 5123,
            "count" : 792,
            "type" : "SCALAR"
        },
        {
            "bufferView" : 41,
            "componentType" : 5126,
            "count" : 1716,
            "max" : [
                4.624499797821045,
                1.8473000526428223,
                -1.0350300073623657
            ],
            "min" : [
                -3.8053600788116455,
                -4.076169967651367,
                -6.081180095672607
            ],
            "type" : "VEC3"
        },
        {
            "bufferView" : 42,
            "componentType" : 5126,
            "count" : 1716,
            "type" : "VEC3"
        },
        {
            "bufferView" : 43,
            "componentType" : 5126,
            "count" : 1716,
            "type" : "VEC2"
        },
        {
            "bufferView" : 44,
            "componentType" : 5123,
            "count" : 1716,
            "type" : "SCALAR"
        },
        {
            "bufferView" : 46,
            "componentType" : 5126,
            "count" : 14415,
            "max" : [
                5.6645002365112305,
                4.877699851989746,
                -1.8896199464797974
            ],
            "min" : [
                -5.391369819641113,
                -5.519010066986084,
                -8.836090087890625
            ],
            "type" : "VEC3"
        },
        {
            "bufferView" : 47,
            "componentType" : 5126,
            "count" : 14415,
            "type" : "VEC3"
        },
        {
            "bufferView" : 48,
            "componentType" : 5126,
            "count" : 14415,
            "type" : "VEC2"
        },
        {
            "bufferView" : 49,
            "componentType" : 5123,
            "count" : 14415,
            "type" : "SCALAR"
        }
    ],
    "bufferViews" : [
        {
            "buffer" : 0,
            "byteLength" : 20712,
            "byteOffset" : 0
        },
        {
            "buffer" : 0,
            "byteLength" : 20712,
            "byteOffset" : 20712
        },
        {
            "buffer" : 0,
            "byteLength" : 13808,
            "byteOffset" : 41424
        },
        {
            "buffer" : 0,
            "byteLength" : 4170,
            "byteOffset" : 55232
        },
        {
            "buffer" : 0,
            "byteLength" : 12672,
            "byteOffset" : 59404
        },
        {
            "buffer" : 0,
            "byteLength" : 12672,
            "byteOffset" : 72076
        },
        {
            "buffer" : 0,
            "byteLength" : 8448,
            "byteOffset" : 84748
        },
        {
            "buffer" : 0,
            "byteLength" : 2112,
            "byteOffset" : 93196
        },
        {
            "buffer" : 0,
            "byteLength" : 9626,
            "byteOffset" : 95308
        },
        {
            "buffer" : 0,
            "byteLength" : 17424,
            "byteOffset" : 104936
        },
        {
            "buffer" : 0,
            "byteLength" : 17424,
            "byteOffset" : 122360
        },
        {
            "buffer" : 0,
            "byteLength" : 11616,
            "byteOffset" : 139784
        },
        {
            "buffer" : 0,
            "byteLength" : 2904,
            "byteOffset" : 151400
        },
        {
            "buffer" : 0,
            "byteLength" : 9655,
            "byteOffset" : 154304
        },
        {
            "buffer" : 0,
            "byteLength" : 17424,
            "byteOffset" : 163960
        },
        {
            "buffer" : 0,
            "byteLength" : 17424,
            "byteOffset" : 181384
        },
        {
            "buffer" : 0,
            "byteLength" : 11616,
            "byteOffset" : 198808
        },
        {
            "buffer" : 0,
            "byteLength" : 9658,
            "byteOffset" : 210424
        },
        {
            "buffer" : 0,
            "byteLength" : 12672,
            "byteOffset" : 220084
        },
        {
            "buffer" : 0,
            "byteLength" : 12672,
            "byteOffset" : 232756
        },
        {
            "buffer" : 0,
            "byteLength" : 8448,
            "byteOffset" : 245428
        },
        {
            "buffer" : 0,
            "byteLength" : 9594,
            "byteOffset" : 253876
        },
        {
            "buffer" : 0,
            "byteLength" : 19008,
            "byteOffset" : 263472
        },
        {
            "buffer" : 0,
            "byteLength" : 19008,
            "byteOffset" : 282480
        },
        {
            "buffer" : 0,
            "byteLength" : 12672,
            "byteOffset" : 301488
        },
        {
            "buffer" : 0,
            "byteLength" : 3168,
            "byteOffset" : 314160
        },
        {
            "buffer" : 0,
            "byteLength" : 9693,
            "byteOffset" : 317328
        },
        {
            "buffer" : 0,
            "byteLength" : 15840,
            "byteOffset" : 327024
        },
        {
            "buffer" : 0,
            "byteLength" : 15840,
            "byteOffset" : 342864
        },
        {
            "buffer" : 0,
            "byteLength" : 10560,
            "byteOffset" : 358704
        },
        {
            "buffer" : 0,
            "byteLength" : 2640,
            "byteOffset" : 369264
        },
        {
            "buffer" : 0,
            "byteLength" : 9530,
            "byteOffset" : 371904
        },
        {
            "buffer" : 0,
            "byteLength" : 17424,
            "byteOffset" : 381436
        },
        {
            "buffer" : 0,
            "byteLength" : 17424,
            "byteOffset" : 398860
        },
        {
            "buffer" : 0,
            "byteLength" : 11616,
            "byteOffset" : 416284
        },
        {
            "buffer" : 0,
            "byteLength" : 9503,
            "byteOffset" : 427900
        },
        {
            "buffer" : 0,
            "byteLength" : 9504,
            "byteOffset" : 437404
        },
        {
            "buffer" : 0,
            "byteLength" : 9504,
            "byteOffset" : 446908
        },
        {
            "buffer" : 0,
            "byteLength" : 6336,
            "byteOffset" : 456412
        },
        {
            "buffer" : 0,
            "byteLength" : 1584,
            "byteOffset" : 462748
        },
        {
            "buffer" : 0,
            "byteLength" : 9581,
            "byteOffset" : 464332
        },
        {
            "buffer" : 0,
            "byteLength" : 20592,
            "byteOffset" : 473916
        },
        {
            "buffer" : 0,
            "byteLength" : 20592,
            "byteOffset" : 494508
        },
        {
            "buffer" : 0,
            "byteLength" : 13728,
            "byteOffset" : 515100
        },
        {
            "buffer" : 0,
            "byteLength" : 3432,
            "byteOffset" : 528828
        },
        {
            "buffer" : 0,
            "byteLength" : 9705,
            "byteOffset" : 532260
        },
        {
            "buffer" : 0,
            "byteLength" : 172980,
            "byteOffset" : 541968
        },
        {
            "buffer" : 0,
            "byteLength" : 172980,
            "byteOffset" : 714948
        },
        {
            "buffer" : 0,
            "byteLength" : 115320,
            "byteOffset" : 887928
        },
        {
            "buffer" : 0,
            "byteLength" : 28830,
            "byteOffset" : 1003248
        }
    ],
    "samplers" : [
        {
            "magFilter" : 9729,
            "minFilter" : 9987
        }
    ],
    "buffers" : [
        {
            "byteLength" : 1032080,
            "uri" : "data:application/octet-stream;base64,"
        }
    ]
}
