{
    "asset" : {
        "generator" : "Khronos glTF Blender I/O v1.5.17",
        "version" : "2.0"
    },
    "scene" : 0,
    "scenes" : [
        {
            "name" : "Scene",
            "nodes" : [
                0
            ]
        }
    ],
    "nodes" : [
        {
            "mesh" : 0,
            "name" : "heroes",
            "rotation" : [
                0.7071068286895752,
                0,
                0,
                0.7071067094802856
            ]
        }
    ],
    "materials" : [
        {
            "doubleSided" : true,
            "name" : "_Tile_Various_Tan_5",
            "pbrMetallicRoughness" : {
                "baseColorTexture" : {
                    "index" : 0
                },
                "metallicFactor" : 0
            }
        },
        {
            "doubleSided" : true,
            "name" : "Metal_Seamed",
            "pbrMetallicRoughness" : {
                "baseColorTexture" : {
                    "index" : 1
                },
                "metallicFactor" : 0
            }
        },
        {
            "doubleSided" : true,
            "name" : "Color_H17",
            "pbrMetallicRoughness" : {
                "baseColorFactor" : [
                    0.07843100279569626,
                    0.4000000059604645,
                    0.4000000059604645,
                    1
                ],
                "metallicFactor" : 0
            }
        }
    ],
    "meshes" : [
        {
            "name" : "heroes",
            "primitives" : [
                {
                    "attributes" : {
                        "POSITION" : 0,
                        "NORMAL" : 1,
                        "TEXCOORD_0" : 2
                    },
                    "indices" : 3,
                    "material" : 0
                },
                {
                    "attributes" : {
                        "POSITION" : 4,
                        "NORMAL" : 5,
                        "TEXCOORD_0" : 6
                    },
                    "indices" : 7,
                    "material" : 1
                },
                {
                    "attributes" : {
                        "POSITION" : 8,
                        "NORMAL" : 9,
                        "TEXCOORD_0" : 10
                    },
                    "indices" : 11,
                    "material" : 2
                }
            ]
        }
    ],
    "textures" : [
        {
            "sampler" : 0,
            "source" : 0
        },
        {
            "sampler" : 0,
            "source" : 1
        }
    ],
    "images" : [
        {
            "bufferView" : 4,
            "mimeType" : "image/jpeg",
            "name" : "_Tile_Various_Tan_5"
        },
        {
            "bufferView" : 9,
            "mimeType" : "image/jpeg",
            "name" : "Metal_Seamed"
        }
    ],
    "accessors" : [
        {
            "bufferView" : 0,
            "componentType" : 5126,
            "count" : 19483,
            "max" : [
                6.167119979858398,
                8.024140357971191,
                -0.015083599835634232
            ],
            "min" : [
                -19.08289909362793,
                -31.563199996948242,
                -29.156700134277344
            ],
            "type" : "VEC3"
        },
        {
            "bufferView" : 1,
            "componentType" : 5126,
            "count" : 19483,
            "type" : "VEC3"
        },
        {
            "bufferView" : 2,
            "componentType" : 5126,
            "count" : 19483,
            "type" : "VEC2"
        },
        {
            "bufferView" : 3,
            "componentType" : 5123,
            "count" : 32562,
            "type" : "SCALAR"
        },
        {
            "bufferView" : 5,
            "componentType" : 5126,
            "count" : 862,
            "max" : [
                -1.4160300493240356,
                -18.427799224853516,
                -21.063800811767578
            ],
            "min" : [
                -8.351880073547363,
                -20.587499618530273,
                -28.98900032043457
            ],
            "type" : "VEC3"
        },
        {
            "bufferView" : 6,
            "componentType" : 5126,
            "count" : 862,
            "type" : "VEC3"
        },
        {
            "bufferView" : 7,
            "componentType" : 5126,
            "count" : 862,
            "type" : "VEC2"
        },
        {
            "bufferView" : 8,
            "componentType" : 5123,
            "count" : 1191,
            "type" : "SCALAR"
        },
        {
            "bufferView" : 10,
            "componentType" : 5126,
            "count" : 4024,
            "max" : [
                -3.3611700534820557,
                -19.920000076293945,
                -8.331839561462402
            ],
            "min" : [
                -5.3360700607299805,
                -24.7549991607666,
                -12.5246000289917
            ],
            "type" : "VEC3"
        },
        {
            "bufferView" : 11,
            "componentType" : 5126,
            "count" : 4024,
            "type" : "VEC3"
        },
        {
            "bufferView" : 12,
            "componentType" : 5126,
            "count" : 4024,
            "type" : "VEC2"
        },
        {
            "bufferView" : 13,
            "componentType" : 5123,
            "count" : 4062,
            "type" : "SCALAR"
        }
    ],
    "bufferViews" : [
        {
            "buffer" : 0,
            "byteLength" : 233796,
            "byteOffset" : 0
        },
        {
            "buffer" : 0,
            "byteLength" : 233796,
            "byteOffset" : 233796
        },
        {
            "buffer" : 0,
            "byteLength" : 155864,
            "byteOffset" : 467592
        },
        {
            "buffer" : 0,
            "byteLength" : 65124,
            "byteOffset" : 623456
        },
        {
            "buffer" : 0,
            "byteLength" : 30478,
            "byteOffset" : 688580
        },
        {
            "buffer" : 0,
            "byteLength" : 10344,
            "byteOffset" : 719060
        },
        {
            "buffer" : 0,
            "byteLength" : 10344,
            "byteOffset" : 729404
        },
        {
            "buffer" : 0,
            "byteLength" : 6896,
            "byteOffset" : 739748
        },
        {
            "buffer" : 0,
            "byteLength" : 2382,
            "byteOffset" : 746644
        },
        {
            "buffer" : 0,
            "byteLength" : 1627,
            "byteOffset" : 749028
        },
        {
            "buffer" : 0,
            "byteLength" : 48288,
            "byteOffset" : 750656
        },
        {
            "buffer" : 0,
            "byteLength" : 48288,
            "byteOffset" : 798944
        },
        {
            "buffer" : 0,
            "byteLength" : 32192,
            "byteOffset" : 847232
        },
        {
            "buffer" : 0,
            "byteLength" : 8124,
            "byteOffset" : 879424
        }
    ],
    "samplers" : [
        {
            "magFilter" : 9729,
            "minFilter" : 9987
        }
    ],
    "buffers" : [
        {
            "byteLength" : 887548,
            "uri" : "data:application/octet-stream;base64,"
        }
    ]
}
