{
    "asset" : {
        "generator" : "Khronos glTF Blender I/O v1.5.17",
        "version" : "2.0"
    },
    "scene" : 0,
    "scenes" : [
        {
            "name" : "Scene",
            "nodes" : [
                0
            ]
        }
    ],
    "nodes" : [
        {
            "mesh" : 0,
            "name" : "handObj",
            "rotation" : [
                0.7071068286895752,
                0,
                0,
                0.7071067094802856
            ],
            "scale" : [
                0.3541194796562195,
                0.3284762501716614,
                0.36106616258621216
            ]
        }
    ],
    "materials" : [
        {
            "doubleSided" : true,
            "name" : "phong1SG",
            "pbrMetallicRoughness" : {
                "baseColorFactor" : [
                    0.800000011920929,
                    0.800000011920929,
                    0.800000011920929,
                    1
                ],
                "metallicFactor" : 0,
                "roughnessFactor" : 0.5
            }
        }
    ],
    "meshes" : [
        {
            "name" : "handObj",
            "primitives" : [
                {
                    "attributes" : {
                        "POSITION" : 0,
                        "NORMAL" : 1,
                        "TEXCOORD_0" : 2
                    },
                    "indices" : 3,
                    "material" : 0
                }
            ]
        }
    ],
    "accessors" : [
        {
            "bufferView" : 0,
            "componentType" : 5126,
            "count" : 1213,
            "max" : [
                1.1999690532684326,
                1.1928709745407104,
                0
            ],
            "min" : [
                -2.0835208892822266,
                -3.0088109970092773,
                -7.751856803894043
            ],
            "type" : "VEC3"
        },
        {
            "bufferView" : 1,
            "componentType" : 5126,
            "count" : 1213,
            "type" : "VEC3"
        },
        {
            "bufferView" : 2,
            "componentType" : 5126,
            "count" : 1213,
            "type" : "VEC2"
        },
        {
            "bufferView" : 3,
            "componentType" : 5123,
            "count" : 6090,
            "type" : "SCALAR"
        }
    ],
    "bufferViews" : [
        {
            "buffer" : 0,
            "byteLength" : 14556,
            "byteOffset" : 0
        },
        {
            "buffer" : 0,
            "byteLength" : 14556,
            "byteOffset" : 14556
        },
        {
            "buffer" : 0,
            "byteLength" : 9704,
            "byteOffset" : 29112
        },
        {
            "buffer" : 0,
            "byteLength" : 12180,
            "byteOffset" : 38816
        }
    ],
    "buffers" : [
        {
            "byteLength" : 50996,
            "uri" : "data:application/octet-stream;base64,"
        }
    ]
}
