{
    "asset" : {
        "generator" : "Khronos glTF Blender I/O v1.5.17",
        "version" : "2.0"
    },
    "scene" : 0,
    "scenes" : [
        {
            "name" : "Scene",
            "nodes" : [
                0
            ]
        }
    ],
    "nodes" : [
        {
            "mesh" : 0,
            "name" : "male head.obj",
            "rotation" : [
                0.7071068286895752,
                0,
                0,
                0.7071067094802856
            ],
            "scale" : [
                0.6317609548568726,
                0.5825376510620117,
                0.5489822626113892
            ]
        }
    ],
    "materials" : [
        {
            "doubleSided" : true,
            "name" : "Material0",
            "pbrMetallicRoughness" : {
                "baseColorFactor" : [
                    0.800000011920929,
                    0.800000011920929,
                    0.800000011920929,
                    1
                ],
                "metallicFactor" : 0,
                "roughnessFactor" : 0.5
            }
        }
    ],
    "meshes" : [
        {
            "name" : "male head.obj",
            "primitives" : [
                {
                    "attributes" : {
                        "POSITION" : 0,
                        "NORMAL" : 1,
                        "TEXCOORD_0" : 2
                    },
                    "indices" : 3,
                    "material" : 0
                }
            ]
        }
    ],
    "accessors" : [
        {
            "bufferView" : 0,
            "componentType" : 5126,
            "count" : 4464,
            "max" : [
                15.16759967803955,
                17.730100631713867,
                18.302499771118164
            ],
            "min" : [
                -15.298199653625488,
                -17.6914005279541,
                -19.857999801635742
            ],
            "type" : "VEC3"
        },
        {
            "bufferView" : 1,
            "componentType" : 5126,
            "count" : 4464,
            "type" : "VEC3"
        },
        {
            "bufferView" : 2,
            "componentType" : 5126,
            "count" : 4464,
            "type" : "VEC2"
        },
        {
            "bufferView" : 3,
            "componentType" : 5123,
            "count" : 13254,
            "type" : "SCALAR"
        }
    ],
    "bufferViews" : [
        {
            "buffer" : 0,
            "byteLength" : 53568,
            "byteOffset" : 0
        },
        {
            "buffer" : 0,
            "byteLength" : 53568,
            "byteOffset" : 53568
        },
        {
            "buffer" : 0,
            "byteLength" : 35712,
            "byteOffset" : 107136
        },
        {
            "buffer" : 0,
            "byteLength" : 26508,
            "byteOffset" : 142848
        }
    ],
    "buffers" : [
        {
            "byteLength" : 169356,
            "uri" : "data:application/octet-stream;base64,"
        }
    ]
}
