{
    "asset" : {
        "generator" : "Khronos glTF Blender I/O v1.5.17",
        "version" : "2.0"
    },
    "scene" : 0,
    "scenes" : [
        {
            "name" : "Scene",
            "nodes" : [
                0
            ]
        }
    ],
    "nodes" : [
        {
            "mesh" : 0,
            "name" : "sangre.001",
            "rotation" : [
                0.7071068286895752,
                0,
                0,
                0.7071067094802856
            ]
        }
    ],
    "materials" : [
        {
            "doubleSided" : true,
            "name" : "Marc_Wrist",
            "pbrMetallicRoughness" : {
                "baseColorFactor" : [
                    0.7372549772262573,
                    0.1450980007648468,
                    0.09411799907684326,
                    1
                ],
                "metallicFactor" : 0
            }
        },
        {
            "doubleSided" : true,
            "name" : "Material9___",
            "pbrMetallicRoughness" : {
                "baseColorFactor" : [
                    1,
                    1,
                    1,
                    0.23999999463558197
                ],
                "baseColorTexture" : {
                    "index" : 0
                },
                "metallicFactor" : 0
            }
        }
    ],
    "meshes" : [
        {
            "name" : "sangre.001",
            "primitives" : [
                {
                    "attributes" : {
                        "POSITION" : 0,
                        "NORMAL" : 1,
                        "TEXCOORD_0" : 2
                    },
                    "indices" : 3,
                    "material" : 0
                },
                {
                    "attributes" : {
                        "POSITION" : 4,
                        "NORMAL" : 5,
                        "TEXCOORD_0" : 6
                    },
                    "indices" : 7,
                    "material" : 1
                }
            ]
        }
    ],
    "textures" : [
        {
            "sampler" : 0,
            "source" : 0
        }
    ],
    "images" : [
        {
            "bufferView" : 8,
            "mimeType" : "image/jpeg",
            "name" : "Material9___"
        }
    ],
    "accessors" : [
        {
            "bufferView" : 0,
            "componentType" : 5126,
            "count" : 39078,
            "max" : [
                0.6411344408988953,
                -0.025126934051513672,
                4.620789861853325e-12
            ],
            "min" : [
                -0.4579634666442871,
                -10.437457084655762,
                -5.35621976852417
            ],
            "type" : "VEC3"
        },
        {
            "bufferView" : 1,
            "componentType" : 5126,
            "count" : 39078,
            "type" : "VEC3"
        },
        {
            "bufferView" : 2,
            "componentType" : 5126,
            "count" : 39078,
            "type" : "VEC2"
        },
        {
            "bufferView" : 3,
            "componentType" : 5123,
            "count" : 39540,
            "type" : "SCALAR"
        },
        {
            "bufferView" : 4,
            "componentType" : 5126,
            "count" : 21695,
            "max" : [
                1.5629067420959473,
                -1.1830699443817139,
                -0.03296869993209839
            ],
            "min" : [
                -1.103209376335144,
                -11.155099868774414,
                -5.598869800567627
            ],
            "type" : "VEC3"
        },
        {
            "bufferView" : 5,
            "componentType" : 5126,
            "count" : 21695,
            "type" : "VEC3"
        },
        {
            "bufferView" : 6,
            "componentType" : 5126,
            "count" : 21695,
            "type" : "VEC2"
        },
        {
            "bufferView" : 7,
            "componentType" : 5123,
            "count" : 21747,
            "type" : "SCALAR"
        }
    ],
    "bufferViews" : [
        {
            "buffer" : 0,
            "byteLength" : 468936,
            "byteOffset" : 0
        },
        {
            "buffer" : 0,
            "byteLength" : 468936,
            "byteOffset" : 468936
        },
        {
            "buffer" : 0,
            "byteLength" : 312624,
            "byteOffset" : 937872
        },
        {
            "buffer" : 0,
            "byteLength" : 79080,
            "byteOffset" : 1250496
        },
        {
            "buffer" : 0,
            "byteLength" : 260340,
            "byteOffset" : 1329576
        },
        {
            "buffer" : 0,
            "byteLength" : 260340,
            "byteOffset" : 1589916
        },
        {
            "buffer" : 0,
            "byteLength" : 173560,
            "byteOffset" : 1850256
        },
        {
            "buffer" : 0,
            "byteLength" : 43494,
            "byteOffset" : 2023816
        },
        {
            "buffer" : 0,
            "byteLength" : 11313,
            "byteOffset" : 2067312
        }
    ],
    "samplers" : [
        {
            "magFilter" : 9729,
            "minFilter" : 9987
        }
    ],
    "buffers" : [
        {
            "byteLength" : 2078628,
            "uri" : "data:application/octet-stream;base64,"
        }
    ]
}
