{
    "asset" : {
        "generator" : "Khronos glTF Blender I/O v1.5.17",
        "version" : "2.0"
    },
    "scene" : 0,
    "scenes" : [
        {
            "name" : "Scene",
            "nodes" : [
                0
            ]
        }
    ],
    "nodes" : [
        {
            "mesh" : 0,
            "name" : "semaforos",
            "rotation" : [
                0.7071068286895752,
                0,
                0,
                0.7071067094802856
            ]
        }
    ],
    "materials" : [
        {
            "doubleSided" : true,
            "name" : "_Charcoal_",
            "pbrMetallicRoughness" : {
                "baseColorFactor" : [
                    0.1490200012922287,
                    0.1490200012922287,
                    0.1490200012922287,
                    1
                ],
                "metallicFactor" : 0
            }
        },
        {
            "doubleSided" : true,
            "name" : "_2",
            "pbrMetallicRoughness" : {
                "baseColorFactor" : [
                    0.11764699965715408,
                    0.11764699965715408,
                    0.11764699965715408,
                    1
                ],
                "metallicFactor" : 0
            }
        },
        {
            "doubleSided" : true,
            "name" : "_1",
            "pbrMetallicRoughness" : {
                "baseColorTexture" : {
                    "index" : 0
                },
                "metallicFactor" : 0
            }
        },
        {
            "doubleSided" : true,
            "name" : "_Orange_",
            "pbrMetallicRoughness" : {
                "baseColorTexture" : {
                    "index" : 1
                },
                "metallicFactor" : 0
            }
        },
        {
            "doubleSided" : true,
            "name" : "_Red_",
            "pbrMetallicRoughness" : {
                "baseColorTexture" : {
                    "index" : 2
                },
                "metallicFactor" : 0
            }
        },
        {
            "doubleSided" : true,
            "name" : "_Green_",
            "pbrMetallicRoughness" : {
                "baseColorTexture" : {
                    "index" : 3
                },
                "metallicFactor" : 0
            }
        },
        {
            "doubleSided" : true,
            "name" : "_Yellow_",
            "pbrMetallicRoughness" : {
                "baseColorTexture" : {
                    "index" : 4
                },
                "metallicFactor" : 0
            }
        },
        {
            "doubleSided" : true,
            "name" : "_Gold_",
            "pbrMetallicRoughness" : {
                "baseColorTexture" : {
                    "index" : 5
                },
                "metallicFactor" : 0
            }
        }
    ],
    "meshes" : [
        {
            "name" : "semaforos",
            "primitives" : [
                {
                    "attributes" : {
                        "POSITION" : 0,
                        "NORMAL" : 1,
                        "TEXCOORD_0" : 2
                    },
                    "indices" : 3,
                    "material" : 0
                },
                {
                    "attributes" : {
                        "POSITION" : 4,
                        "NORMAL" : 5,
                        "TEXCOORD_0" : 6
                    },
                    "indices" : 7,
                    "material" : 1
                },
                {
                    "attributes" : {
                        "POSITION" : 8,
                        "NORMAL" : 9,
                        "TEXCOORD_0" : 10
                    },
                    "indices" : 11,
                    "material" : 2
                },
                {
                    "attributes" : {
                        "POSITION" : 12,
                        "NORMAL" : 13,
                        "TEXCOORD_0" : 14
                    },
                    "indices" : 15,
                    "material" : 3
                },
                {
                    "attributes" : {
                        "POSITION" : 16,
                        "NORMAL" : 17,
                        "TEXCOORD_0" : 18
                    },
                    "indices" : 19,
                    "material" : 4
                },
                {
                    "attributes" : {
                        "POSITION" : 20,
                        "NORMAL" : 21,
                        "TEXCOORD_0" : 22
                    },
                    "indices" : 23,
                    "material" : 5
                },
                {
                    "attributes" : {
                        "POSITION" : 24,
                        "NORMAL" : 25,
                        "TEXCOORD_0" : 26
                    },
                    "indices" : 27,
                    "material" : 6
                },
                {
                    "attributes" : {
                        "POSITION" : 28,
                        "NORMAL" : 29,
                        "TEXCOORD_0" : 30
                    },
                    "indices" : 27,
                    "material" : 7
                }
            ]
        }
    ],
    "textures" : [
        {
            "sampler" : 0,
            "source" : 0
        },
        {
            "sampler" : 0,
            "source" : 1
        },
        {
            "sampler" : 0,
            "source" : 2
        },
        {
            "sampler" : 0,
            "source" : 3
        },
        {
            "sampler" : 0,
            "source" : 4
        },
        {
            "sampler" : 0,
            "source" : 5
        }
    ],
    "images" : [
        {
            "bufferView" : 12,
            "mimeType" : "image/jpeg",
            "name" : "_1"
        },
        {
            "bufferView" : 17,
            "mimeType" : "image/jpeg",
            "name" : "_Orange_"
        },
        {
            "bufferView" : 22,
            "mimeType" : "image/jpeg",
            "name" : "_Red_"
        },
        {
            "bufferView" : 27,
            "mimeType" : "image/jpeg",
            "name" : "_Green_"
        },
        {
            "bufferView" : 32,
            "mimeType" : "image/jpeg",
            "name" : "_Yellow_"
        },
        {
            "bufferView" : 36,
            "mimeType" : "image/jpeg",
            "name" : "_Gold_"
        }
    ],
    "accessors" : [
        {
            "bufferView" : 0,
            "componentType" : 5126,
            "count" : 4092,
            "max" : [
                61.93949890136719,
                1.2434500416900595e-14,
                0
            ],
            "min" : [
                0,
                -13.524999618530273,
                -30
            ],
            "type" : "VEC3"
        },
        {
            "bufferView" : 1,
            "componentType" : 5126,
            "count" : 4092,
            "type" : "VEC3"
        },
        {
            "bufferView" : 2,
            "componentType" : 5126,
            "count" : 4092,
            "type" : "VEC2"
        },
        {
            "bufferView" : 3,
            "componentType" : 5123,
            "count" : 8928,
            "type" : "SCALAR"
        },
        {
            "bufferView" : 4,
            "componentType" : 5126,
            "count" : 144,
            "max" : [
                61.104400634765625,
                -7.375,
                0
            ],
            "min" : [
                0.916936993598938,
                -7.375,
                -30
            ],
            "type" : "VEC3"
        },
        {
            "bufferView" : 5,
            "componentType" : 5126,
            "count" : 144,
            "type" : "VEC3"
        },
        {
            "bufferView" : 6,
            "componentType" : 5126,
            "count" : 144,
            "type" : "VEC2"
        },
        {
            "bufferView" : 7,
            "componentType" : 5123,
            "count" : 432,
            "type" : "SCALAR"
        },
        {
            "bufferView" : 8,
            "componentType" : 5126,
            "count" : 42,
            "max" : [
                60.104400634765625,
                -6.875,
                -1.1002899408340454
            ],
            "min" : [
                1.9169399738311768,
                -6.875,
                -8.899709701538086
            ],
            "type" : "VEC3"
        },
        {
            "bufferView" : 9,
            "componentType" : 5126,
            "count" : 42,
            "type" : "VEC3"
        },
        {
            "bufferView" : 10,
            "componentType" : 5126,
            "count" : 42,
            "type" : "VEC2"
        },
        {
            "bufferView" : 11,
            "componentType" : 5123,
            "count" : 108,
            "type" : "SCALAR"
        },
        {
            "bufferView" : 13,
            "componentType" : 5126,
            "count" : 42,
            "max" : [
                60.104400634765625,
                -6.875,
                -11.100299835205078
            ],
            "min" : [
                1.9169399738311768,
                -6.875,
                -18.899700164794922
            ],
            "type" : "VEC3"
        },
        {
            "bufferView" : 14,
            "componentType" : 5126,
            "count" : 42,
            "type" : "VEC3"
        },
        {
            "bufferView" : 15,
            "componentType" : 5126,
            "count" : 42,
            "type" : "VEC2"
        },
        {
            "bufferView" : 16,
            "componentType" : 5123,
            "count" : 108,
            "type" : "SCALAR"
        },
        {
            "bufferView" : 18,
            "componentType" : 5126,
            "count" : 42,
            "max" : [
                43.354400634765625,
                -6.875,
                -21.100299835205078
            ],
            "min" : [
                1.9169399738311768,
                -6.875,
                -28.899700164794922
            ],
            "type" : "VEC3"
        },
        {
            "bufferView" : 19,
            "componentType" : 5126,
            "count" : 42,
            "type" : "VEC3"
        },
        {
            "bufferView" : 20,
            "componentType" : 5126,
            "count" : 42,
            "type" : "VEC2"
        },
        {
            "bufferView" : 21,
            "componentType" : 5123,
            "count" : 108,
            "type" : "SCALAR"
        },
        {
            "bufferView" : 23,
            "componentType" : 5126,
            "count" : 14,
            "max" : [
                26.604400634765625,
                -6.875,
                -1.1002899408340454
            ],
            "min" : [
                18.604400634765625,
                -6.875,
                -8.899709701538086
            ],
            "type" : "VEC3"
        },
        {
            "bufferView" : 24,
            "componentType" : 5126,
            "count" : 14,
            "type" : "VEC3"
        },
        {
            "bufferView" : 25,
            "componentType" : 5126,
            "count" : 14,
            "type" : "VEC2"
        },
        {
            "bufferView" : 26,
            "componentType" : 5123,
            "count" : 36,
            "type" : "SCALAR"
        },
        {
            "bufferView" : 28,
            "componentType" : 5126,
            "count" : 14,
            "max" : [
                43.354400634765625,
                -6.875,
                -11.100299835205078
            ],
            "min" : [
                35.354400634765625,
                -6.875,
                -18.899700164794922
            ],
            "type" : "VEC3"
        },
        {
            "bufferView" : 29,
            "componentType" : 5126,
            "count" : 14,
            "type" : "VEC3"
        },
        {
            "bufferView" : 30,
            "componentType" : 5126,
            "count" : 14,
            "type" : "VEC2"
        },
        {
            "bufferView" : 31,
            "componentType" : 5123,
            "count" : 36,
            "type" : "SCALAR"
        },
        {
            "bufferView" : 33,
            "componentType" : 5126,
            "count" : 14,
            "max" : [
                60.104400634765625,
                -6.875,
                -21.100299835205078
            ],
            "min" : [
                52.104400634765625,
                -6.875,
                -28.899700164794922
            ],
            "type" : "VEC3"
        },
        {
            "bufferView" : 34,
            "componentType" : 5126,
            "count" : 14,
            "type" : "VEC3"
        },
        {
            "bufferView" : 35,
            "componentType" : 5126,
            "count" : 14,
            "type" : "VEC2"
        }
    ],
    "bufferViews" : [
        {
            "buffer" : 0,
            "byteLength" : 49104,
            "byteOffset" : 0
        },
        {
            "buffer" : 0,
            "byteLength" : 49104,
            "byteOffset" : 49104
        },
        {
            "buffer" : 0,
            "byteLength" : 32736,
            "byteOffset" : 98208
        },
        {
            "buffer" : 0,
            "byteLength" : 17856,
            "byteOffset" : 130944
        },
        {
            "buffer" : 0,
            "byteLength" : 1728,
            "byteOffset" : 148800
        },
        {
            "buffer" : 0,
            "byteLength" : 1728,
            "byteOffset" : 150528
        },
        {
            "buffer" : 0,
            "byteLength" : 1152,
            "byteOffset" : 152256
        },
        {
            "buffer" : 0,
            "byteLength" : 864,
            "byteOffset" : 153408
        },
        {
            "buffer" : 0,
            "byteLength" : 504,
            "byteOffset" : 154272
        },
        {
            "buffer" : 0,
            "byteLength" : 504,
            "byteOffset" : 154776
        },
        {
            "buffer" : 0,
            "byteLength" : 336,
            "byteOffset" : 155280
        },
        {
            "buffer" : 0,
            "byteLength" : 216,
            "byteOffset" : 155616
        },
        {
            "buffer" : 0,
            "byteLength" : 13085,
            "byteOffset" : 155832
        },
        {
            "buffer" : 0,
            "byteLength" : 504,
            "byteOffset" : 168920
        },
        {
            "buffer" : 0,
            "byteLength" : 504,
            "byteOffset" : 169424
        },
        {
            "buffer" : 0,
            "byteLength" : 336,
            "byteOffset" : 169928
        },
        {
            "buffer" : 0,
            "byteLength" : 216,
            "byteOffset" : 170264
        },
        {
            "buffer" : 0,
            "byteLength" : 20744,
            "byteOffset" : 170480
        },
        {
            "buffer" : 0,
            "byteLength" : 504,
            "byteOffset" : 191224
        },
        {
            "buffer" : 0,
            "byteLength" : 504,
            "byteOffset" : 191728
        },
        {
            "buffer" : 0,
            "byteLength" : 336,
            "byteOffset" : 192232
        },
        {
            "buffer" : 0,
            "byteLength" : 216,
            "byteOffset" : 192568
        },
        {
            "buffer" : 0,
            "byteLength" : 18887,
            "byteOffset" : 192784
        },
        {
            "buffer" : 0,
            "byteLength" : 168,
            "byteOffset" : 211672
        },
        {
            "buffer" : 0,
            "byteLength" : 168,
            "byteOffset" : 211840
        },
        {
            "buffer" : 0,
            "byteLength" : 112,
            "byteOffset" : 212008
        },
        {
            "buffer" : 0,
            "byteLength" : 72,
            "byteOffset" : 212120
        },
        {
            "buffer" : 0,
            "byteLength" : 21300,
            "byteOffset" : 212192
        },
        {
            "buffer" : 0,
            "byteLength" : 168,
            "byteOffset" : 233492
        },
        {
            "buffer" : 0,
            "byteLength" : 168,
            "byteOffset" : 233660
        },
        {
            "buffer" : 0,
            "byteLength" : 112,
            "byteOffset" : 233828
        },
        {
            "buffer" : 0,
            "byteLength" : 72,
            "byteOffset" : 233940
        },
        {
            "buffer" : 0,
            "byteLength" : 18677,
            "byteOffset" : 234012
        },
        {
            "buffer" : 0,
            "byteLength" : 168,
            "byteOffset" : 252692
        },
        {
            "buffer" : 0,
            "byteLength" : 168,
            "byteOffset" : 252860
        },
        {
            "buffer" : 0,
            "byteLength" : 112,
            "byteOffset" : 253028
        },
        {
            "buffer" : 0,
            "byteLength" : 17801,
            "byteOffset" : 253140
        }
    ],
    "samplers" : [
        {
            "magFilter" : 9729,
            "minFilter" : 9987
        }
    ],
    "buffers" : [
        {
            "byteLength" : 270944,
            "uri" : "data:application/octet-stream;base64,"
        }
    ]
}
