{
    "asset" : {
        "generator" : "Khronos glTF Blender I/O v1.5.17",
        "version" : "2.0"
    },
    "scene" : 0,
    "scenes" : [
        {
            "name" : "Scene",
            "nodes" : [
                0
            ]
        }
    ],
    "nodes" : [
        {
            "mesh" : 0,
            "name" : "se\u00f1ales",
            "rotation" : [
                0.7071068286895752,
                0,
                0,
                0.7071067094802856
            ]
        }
    ],
    "materials" : [
        {
            "doubleSided" : true,
            "name" : "Spt_Texture_04",
            "pbrMetallicRoughness" : {
                "metallicFactor" : 0
            }
        },
        {
            "doubleSided" : true,
            "name" : "Spt_Texture_03",
            "pbrMetallicRoughness" : {
                "baseColorFactor" : [
                    0.33725500106811523,
                    0.33725500106811523,
                    0.33725500106811523,
                    1
                ],
                "metallicFactor" : 0
            }
        },
        {
            "doubleSided" : true,
            "name" : "Spt_Texture_02",
            "pbrMetallicRoughness" : {
                "baseColorTexture" : {
                    "index" : 0
                },
                "metallicFactor" : 0
            }
        },
        {
            "doubleSided" : true,
            "name" : "Spt_Texture_01",
            "pbrMetallicRoughness" : {
                "baseColorFactor" : [
                    0.10196100175380707,
                    0.4156860113143921,
                    0.10196100175380707,
                    1
                ],
                "metallicFactor" : 0
            }
        },
        {
            "doubleSided" : true,
            "name" : "Spt_Texture_07",
            "pbrMetallicRoughness" : {
                "baseColorFactor" : [
                    0.8627449870109558,
                    0.7058820128440857,
                    0.07451000064611435,
                    1
                ],
                "metallicFactor" : 0
            }
        },
        {
            "doubleSided" : true,
            "name" : "Spt_Texture_05",
            "pbrMetallicRoughness" : {
                "baseColorFactor" : [
                    0.6627449989318848,
                    0.05490199849009514,
                    0.16862699389457703,
                    1
                ],
                "metallicFactor" : 0
            }
        }
    ],
    "meshes" : [
        {
            "name" : "se\u00f1ales",
            "primitives" : [
                {
                    "attributes" : {
                        "POSITION" : 0,
                        "NORMAL" : 1,
                        "TEXCOORD_0" : 2
                    },
                    "indices" : 3,
                    "material" : 0
                },
                {
                    "attributes" : {
                        "POSITION" : 4,
                        "NORMAL" : 5,
                        "TEXCOORD_0" : 6
                    },
                    "indices" : 7,
                    "material" : 1
                },
                {
                    "attributes" : {
                        "POSITION" : 8,
                        "NORMAL" : 9,
                        "TEXCOORD_0" : 10
                    },
                    "indices" : 11,
                    "material" : 2
                },
                {
                    "attributes" : {
                        "POSITION" : 12,
                        "NORMAL" : 13,
                        "TEXCOORD_0" : 14
                    },
                    "indices" : 15,
                    "material" : 3
                },
                {
                    "attributes" : {
                        "POSITION" : 16,
                        "NORMAL" : 17,
                        "TEXCOORD_0" : 18
                    },
                    "indices" : 19,
                    "material" : 4
                },
                {
                    "attributes" : {
                        "POSITION" : 20,
                        "NORMAL" : 21,
                        "TEXCOORD_0" : 22
                    },
                    "indices" : 23,
                    "material" : 5
                }
            ]
        }
    ],
    "textures" : [
        {
            "sampler" : 0,
            "source" : 0
        }
    ],
    "images" : [
        {
            "bufferView" : 12,
            "mimeType" : "image/jpeg",
            "name" : "Spt_Texture_02"
        }
    ],
    "accessors" : [
        {
            "bufferView" : 0,
            "componentType" : 5126,
            "count" : 758,
            "max" : [
                -0.29200801253318787,
                0.3273540139198303,
                -1.3632999658584595
            ],
            "min" : [
                -0.8945119976997375,
                0.3180229961872101,
                -1.9658000469207764
            ],
            "type" : "VEC3"
        },
        {
            "bufferView" : 1,
            "componentType" : 5126,
            "count" : 758,
            "type" : "VEC3"
        },
        {
            "bufferView" : 2,
            "componentType" : 5126,
            "count" : 758,
            "type" : "VEC2"
        },
        {
            "bufferView" : 3,
            "componentType" : 5123,
            "count" : 1458,
            "type" : "SCALAR"
        },
        {
            "bufferView" : 4,
            "componentType" : 5126,
            "count" : 2980,
            "max" : [
                -0.4826340079307556,
                0.42100000381469727,
                3.3306698679688577e-16
            ],
            "min" : [
                -3.0216898918151855,
                0.18400000035762787,
                -0.011850000359117985
            ],
            "type" : "VEC3"
        },
        {
            "bufferView" : 5,
            "componentType" : 5126,
            "count" : 2980,
            "type" : "VEC3"
        },
        {
            "bufferView" : 6,
            "componentType" : 5126,
            "count" : 2980,
            "type" : "VEC2"
        },
        {
            "bufferView" : 7,
            "componentType" : 5123,
            "count" : 5652,
            "type" : "SCALAR"
        },
        {
            "bufferView" : 8,
            "componentType" : 5126,
            "count" : 32,
            "max" : [
                -0.4036340117454529,
                0.5,
                0.3160000145435333
            ],
            "min" : [
                -0.7986339926719666,
                0.10499999672174454,
                3.3306698679688577e-16
            ],
            "type" : "VEC3"
        },
        {
            "bufferView" : 9,
            "componentType" : 5126,
            "count" : 32,
            "type" : "VEC3"
        },
        {
            "bufferView" : 10,
            "componentType" : 5126,
            "count" : 32,
            "type" : "VEC2"
        },
        {
            "bufferView" : 11,
            "componentType" : 5123,
            "count" : 60,
            "type" : "SCALAR"
        },
        {
            "bufferView" : 13,
            "componentType" : 5126,
            "count" : 72,
            "max" : [
                -0.5659310221672058,
                0.3198130130767822,
                0.2617869973182678
            ],
            "min" : [
                -0.6361619830131531,
                0.28290799260139465,
                -1.6645499467849731
            ],
            "type" : "VEC3"
        },
        {
            "bufferView" : 14,
            "componentType" : 5126,
            "count" : 72,
            "type" : "VEC3"
        },
        {
            "bufferView" : 15,
            "componentType" : 5126,
            "count" : 72,
            "type" : "VEC2"
        },
        {
            "bufferView" : 16,
            "componentType" : 5123,
            "count" : 132,
            "type" : "SCALAR"
        },
        {
            "bufferView" : 17,
            "componentType" : 5126,
            "count" : 20,
            "max" : [
                -0.9741740226745605,
                0.32264798879623413,
                -1.6661499738693237
            ],
            "min" : [
                -1.335729956626892,
                0.31474798917770386,
                -2.0430901050567627
            ],
            "type" : "VEC3"
        },
        {
            "bufferView" : 18,
            "componentType" : 5126,
            "count" : 20,
            "type" : "VEC3"
        },
        {
            "bufferView" : 19,
            "componentType" : 5126,
            "count" : 20,
            "type" : "VEC2"
        },
        {
            "bufferView" : 20,
            "componentType" : 5123,
            "count" : 30,
            "type" : "SCALAR"
        },
        {
            "bufferView" : 21,
            "componentType" : 5126,
            "count" : 32,
            "max" : [
                -0.29200801253318787,
                0.32577401399612427,
                -1.3632999658584595
            ],
            "min" : [
                -0.8945119976997375,
                0.3180229961872101,
                -1.9658000469207764
            ],
            "type" : "VEC3"
        },
        {
            "bufferView" : 22,
            "componentType" : 5126,
            "count" : 32,
            "type" : "VEC3"
        },
        {
            "bufferView" : 23,
            "componentType" : 5126,
            "count" : 32,
            "type" : "VEC2"
        },
        {
            "bufferView" : 24,
            "componentType" : 5123,
            "count" : 90,
            "type" : "SCALAR"
        }
    ],
    "bufferViews" : [
        {
            "buffer" : 0,
            "byteLength" : 9096,
            "byteOffset" : 0
        },
        {
            "buffer" : 0,
            "byteLength" : 9096,
            "byteOffset" : 9096
        },
        {
            "buffer" : 0,
            "byteLength" : 6064,
            "byteOffset" : 18192
        },
        {
            "buffer" : 0,
            "byteLength" : 2916,
            "byteOffset" : 24256
        },
        {
            "buffer" : 0,
            "byteLength" : 35760,
            "byteOffset" : 27172
        },
        {
            "buffer" : 0,
            "byteLength" : 35760,
            "byteOffset" : 62932
        },
        {
            "buffer" : 0,
            "byteLength" : 23840,
            "byteOffset" : 98692
        },
        {
            "buffer" : 0,
            "byteLength" : 11304,
            "byteOffset" : 122532
        },
        {
            "buffer" : 0,
            "byteLength" : 384,
            "byteOffset" : 133836
        },
        {
            "buffer" : 0,
            "byteLength" : 384,
            "byteOffset" : 134220
        },
        {
            "buffer" : 0,
            "byteLength" : 256,
            "byteOffset" : 134604
        },
        {
            "buffer" : 0,
            "byteLength" : 120,
            "byteOffset" : 134860
        },
        {
            "buffer" : 0,
            "byteLength" : 25520,
            "byteOffset" : 134980
        },
        {
            "buffer" : 0,
            "byteLength" : 864,
            "byteOffset" : 160500
        },
        {
            "buffer" : 0,
            "byteLength" : 864,
            "byteOffset" : 161364
        },
        {
            "buffer" : 0,
            "byteLength" : 576,
            "byteOffset" : 162228
        },
        {
            "buffer" : 0,
            "byteLength" : 264,
            "byteOffset" : 162804
        },
        {
            "buffer" : 0,
            "byteLength" : 240,
            "byteOffset" : 163068
        },
        {
            "buffer" : 0,
            "byteLength" : 240,
            "byteOffset" : 163308
        },
        {
            "buffer" : 0,
            "byteLength" : 160,
            "byteOffset" : 163548
        },
        {
            "buffer" : 0,
            "byteLength" : 60,
            "byteOffset" : 163708
        },
        {
            "buffer" : 0,
            "byteLength" : 384,
            "byteOffset" : 163768
        },
        {
            "buffer" : 0,
            "byteLength" : 384,
            "byteOffset" : 164152
        },
        {
            "buffer" : 0,
            "byteLength" : 256,
            "byteOffset" : 164536
        },
        {
            "buffer" : 0,
            "byteLength" : 180,
            "byteOffset" : 164792
        }
    ],
    "samplers" : [
        {
            "magFilter" : 9729,
            "minFilter" : 9987
        }
    ],
    "buffers" : [
        {
            "byteLength" : 164972,
            "uri" : "data:application/octet-stream;base64,"
        }
    ]
}
