{
    "asset" : {
        "generator" : "Khronos glTF Blender I/O v1.5.17",
        "version" : "2.0"
    },
    "scene" : 0,
    "scenes" : [
        {
            "name" : "Scene",
            "nodes" : [
                0
            ]
        }
    ],
    "nodes" : [
        {
            "mesh" : 0,
            "name" : "Mirror 06",
            "rotation" : [
                0.7071068286895752,
                0,
                0,
                0.7071067094802856
            ]
        }
    ],
    "materials" : [
        {
            "doubleSided" : true,
            "name" : "wire_028028177",
            "pbrMetallicRoughness" : {
                "metallicFactor" : 0,
                "roughnessFactor" : 0.5
            }
        }
    ],
    "meshes" : [
        {
            "name" : "Mirror 06",
            "primitives" : [
                {
                    "attributes" : {
                        "POSITION" : 0,
                        "NORMAL" : 1
                    },
                    "indices" : 2,
                    "material" : 0
                }
            ]
        }
    ],
    "accessors" : [
        {
            "bufferView" : 0,
            "componentType" : 5126,
            "count" : 8912,
            "max" : [
                12.318699836730957,
                0.4657000005245209,
                0.006200000178068876
            ],
            "min" : [
                -12.318699836730957,
                -12.069499969482422,
                -66.19149780273438
            ],
            "type" : "VEC3"
        },
        {
            "bufferView" : 1,
            "componentType" : 5126,
            "count" : 8912,
            "type" : "VEC3"
        },
        {
            "bufferView" : 2,
            "componentType" : 5123,
            "count" : 51396,
            "type" : "SCALAR"
        }
    ],
    "bufferViews" : [
        {
            "buffer" : 0,
            "byteLength" : 106944,
            "byteOffset" : 0
        },
        {
            "buffer" : 0,
            "byteLength" : 106944,
            "byteOffset" : 106944
        },
        {
            "buffer" : 0,
            "byteLength" : 102792,
            "byteOffset" : 213888
        }
    ],
    "buffers" : [
        {
            "byteLength" : 316680,
            "uri" : "data:application/octet-stream;base64,"
        }
    ]
}
